{"glyphs":{"0":{"ha":791,"x_min":60,"x_max":731,"o":"m 60 509 q 395 1017 60 1017 q 731 509 731 1017 q 395 0 731 0 q 60 509 60 0 m 629 509 q 395 916 629 916 q 161 509 161 916 q 395 102 161 102 q 629 509 629 102 z "},"1":{"ha":646,"x_min":153,"x_max":533,"o":"m 292 795 l 153 795 l 153 859 q 317 1017 297 859 l 394 1017 l 394 102 l 533 102 l 533 0 l 153 0 l 153 102 l 292 102 l 292 795 z "},"2":{"ha":766,"x_min":74,"x_max":705,"o":"m 412 489 q 603 714 603 572 q 389 916 603 916 q 176 714 176 916 l 74 714 q 389 1017 74 1017 q 705 714 705 1017 q 446 391 705 503 l 316 335 q 176 102 176 277 l 705 102 l 705 0 l 74 0 l 74 102 q 282 433 74 345 l 412 489 z "},"3":{"ha":775,"x_min":66,"x_max":696,"o":"m 381 584 q 574 750 574 584 q 381 916 574 916 q 188 750 188 916 l 86 750 q 381 1017 86 1017 q 676 751 676 1017 q 584 536 676 602 q 696 292 696 467 q 381 0 696 0 q 66 294 66 0 l 168 294 q 381 102 168 102 q 595 294 595 102 q 381 485 595 485 l 328 485 l 328 584 l 381 584 z "},"4":{"ha":740,"x_min":27,"x_max":705,"o":"m 473 835 l 150 352 l 473 352 l 473 835 m 473 1017 l 575 1017 l 575 352 l 705 352 l 705 250 l 575 250 l 575 0 l 473 0 l 473 250 l 27 250 l 27 352 l 473 1017 z "},"5":{"ha":777,"x_min":84,"x_max":705,"o":"m 705 339 q 408 0 705 0 q 84 269 118 0 l 186 269 q 408 102 220 102 q 603 339 603 102 q 415 576 603 576 q 220 490 278 576 l 121 490 l 169 1017 l 657 1017 l 657 916 l 260 916 l 235 644 q 415 678 308 678 q 705 339 705 678 z "},"6":{"ha":734,"x_min":58,"x_max":688,"o":"m 165 389 q 373 102 194 102 q 587 322 587 102 q 373 543 587 543 q 165 389 195 543 m 373 0 q 58 509 58 0 q 407 1017 58 1017 q 688 779 688 1017 l 587 779 q 407 916 587 916 q 162 586 184 916 q 373 644 239 644 q 688 322 688 644 q 373 0 688 0 z "},"7":{"ha":748,"x_min":67,"x_max":698,"o":"m 698 916 l 336 0 l 227 0 l 589 916 l 67 916 l 67 1017 l 698 1017 l 698 916 z "},"8":{"ha":731,"x_min":50,"x_max":681,"o":"m 366 916 q 172 746 172 916 q 366 576 172 576 q 559 746 559 576 q 366 916 559 916 m 366 475 q 152 288 152 475 q 366 102 152 102 q 579 288 579 102 q 366 475 579 475 m 161 529 q 71 746 71 595 q 366 1017 71 1017 q 661 746 661 1017 q 570 529 661 595 q 681 288 681 459 q 366 0 681 0 q 50 288 50 0 q 161 529 50 459 z "},"9":{"ha":734,"x_min":45,"x_max":676,"o":"m 569 629 q 361 916 540 916 q 147 695 147 916 q 361 475 147 475 q 569 629 539 475 m 361 1017 q 676 509 676 1017 q 327 0 676 0 q 45 239 45 0 l 147 239 q 327 102 147 102 q 572 431 549 102 q 361 373 495 373 q 45 695 45 373 q 361 1017 45 1017 z "}," ":{"ha":386,"x_min":0,"x_max":0,"o":""},"!":{"ha":591,"x_min":305,"x_max":422,"o":"m 415 1013 l 415 543 l 388 233 l 340 233 l 313 543 l 313 1013 l 415 1013 m 422 144 l 422 0 l 305 0 l 305 144 l 422 144 z "},"\"":{"ha":493,"x_min":72,"x_max":423,"o":"m 72 985 l 201 985 l 201 831 l 163 644 l 109 644 l 72 831 l 72 985 m 294 985 l 423 985 l 423 831 l 386 644 l 332 644 l 294 831 l 294 985 z "},"#":{"ha":772,"x_min":19,"x_max":752,"o":"m 673 968 l 623 696 l 752 696 l 752 602 l 605 602 l 562 359 l 708 359 l 708 265 l 545 265 l 491 -27 l 386 -27 l 438 265 l 267 265 l 212 -27 l 106 -27 l 159 265 l 19 265 l 19 359 l 177 359 l 220 602 l 71 602 l 71 696 l 239 696 l 288 968 l 394 968 l 344 696 l 517 696 l 566 968 l 673 968 m 500 602 l 328 602 l 283 359 l 456 359 l 500 602 z "},"$":{"ha":772,"x_min":47,"x_max":722,"o":"m 340 1069 l 422 1069 l 422 994 q 662 852 597 982 q 691 734 688 800 l 691 721 l 582 721 q 501 875 581 828 q 440 896 473 890 q 422 897 431 897 l 422 551 q 604 485 561 509 q 722 271 722 418 q 627 41 722 126 q 594 17 612 28 q 422 -32 526 -23 l 422 -175 l 340 -175 l 340 -32 q 66 144 126 -18 q 47 264 47 199 q 48 289 47 277 l 158 289 q 187 153 168 186 q 193 143 190 149 q 340 64 241 77 l 340 441 q 165 514 211 481 q 66 717 66 585 q 260 978 66 920 q 340 994 297 989 l 340 1069 m 340 562 l 340 896 q 183 772 207 878 q 179 730 179 753 q 340 562 179 606 m 422 429 l 422 64 q 549 115 507 74 q 608 254 608 171 q 543 380 608 339 q 422 429 503 406 z "},"%":{"ha":1234,"x_min":40,"x_max":1193,"o":"m 276 951 q 464 860 393 951 l 489 821 q 513 711 513 770 q 426 530 513 602 q 277 476 361 476 q 93 564 165 476 q 40 714 40 631 q 127 899 40 827 q 276 951 193 951 m 276 854 q 159 790 201 854 l 143 758 q 136 714 136 736 q 198 597 136 640 q 277 574 235 574 q 394 636 353 574 q 418 713 418 671 q 351 833 418 791 q 276 854 318 854 m 846 985 l 937 985 l 389 -27 l 297 -27 l 846 985 m 956 447 q 1144 355 1074 447 q 1193 208 1193 292 q 1105 28 1193 98 q 957 -26 1040 -26 q 772 61 844 -26 q 719 211 719 127 q 808 395 719 323 q 956 447 873 447 m 956 350 q 839 288 880 350 q 815 211 815 253 q 880 93 815 135 q 957 71 915 71 q 1074 134 1031 71 q 1097 208 1097 168 q 1030 329 1097 288 l 998 343 q 956 350 977 350 z "},"&":{"ha":926,"x_min":72,"x_max":884,"o":"m 684 464 l 795 464 q 715 210 795 334 l 884 0 l 733 0 l 647 109 q 540 18 579 41 q 357 -32 462 -32 q 118 82 195 -32 q 72 244 72 150 q 144 431 72 357 q 297 541 194 481 q 187 729 199 663 q 184 766 184 747 q 275 939 184 873 q 422 985 338 985 q 611 893 547 985 l 631 854 q 647 791 644 825 q 648 766 648 779 q 572 603 648 671 q 456 525 532 567 l 642 298 q 684 458 684 374 l 684 464 m 395 599 q 529 721 508 669 q 538 770 538 742 q 476 873 538 842 q 418 888 450 888 q 307 818 334 888 q 298 768 298 796 q 333 673 298 722 l 395 599 m 581 191 l 358 468 q 199 315 227 385 q 189 254 189 288 q 264 111 189 164 q 370 77 312 77 q 558 167 464 77 q 581 191 569 178 z "},"'":{"ha":265,"x_min":66,"x_max":197,"o":"m 66 985 l 197 985 l 197 831 l 159 644 l 104 644 l 66 831 l 66 985 z "},"(":{"ha":777,"x_min":170,"x_max":472,"o":"m 396 1013 l 472 1013 q 283 416 300 734 q 282 359 282 387 q 452 -259 282 36 q 472 -294 461 -277 l 396 -294 q 188 178 239 -89 q 170 359 170 272 q 298 857 170 608 q 396 1013 342 942 z "},")":{"ha":777,"x_min":305,"x_max":608,"o":"m 382 -294 l 305 -294 q 494 301 477 -16 q 496 358 496 330 q 326 978 496 682 q 305 1013 316 996 l 382 1013 q 590 541 538 807 q 608 358 608 446 q 479 -138 608 110 q 382 -294 436 -223 z "},"*":{"ha":896,"x_min":305,"x_max":726,"o":"m 472 1013 l 559 1013 l 553 857 l 700 909 l 726 828 l 576 786 l 673 663 l 602 612 l 516 742 l 429 612 l 359 663 l 455 786 l 305 828 l 332 909 l 479 857 l 472 1013 z "},"+":{"ha":811,"x_min":69,"x_max":741,"o":"m 741 371 l 741 273 l 454 273 l 454 -14 l 357 -14 l 357 273 l 69 273 l 69 371 l 357 371 l 357 659 l 454 659 l 454 371 l 741 371 z "},",":{"ha":386,"x_min":121,"x_max":267,"o":"m 121 144 l 267 144 l 267 -22 q 121 -204 267 -204 l 121 -151 q 195 -105 180 -149 q 204 -24 204 -79 l 204 0 l 121 0 l 121 144 z "},"-":{"ha":462,"x_min":64,"x_max":394,"o":"m 394 433 l 394 334 l 64 334 l 64 433 l 394 433 z "},".":{"ha":386,"x_min":121,"x_max":265,"o":"m 265 144 l 265 0 l 121 0 l 121 144 l 265 144 z "},"/":{"ha":386,"x_min":-11,"x_max":395,"o":"m 318 1013 l 395 1013 l 66 -27 l -11 -27 l 318 1013 z "},":":{"ha":386,"x_min":153,"x_max":297,"o":"m 297 144 l 297 0 l 153 0 l 153 144 l 297 144 m 297 728 l 297 583 l 153 583 l 153 728 l 297 728 z "},";":{"ha":386,"x_min":153,"x_max":298,"o":"m 298 728 l 298 583 l 154 583 l 154 728 l 298 728 m 153 144 l 298 144 l 298 -22 q 153 -204 298 -204 l 153 -151 q 227 -105 212 -149 q 236 -24 236 -79 l 236 0 l 153 0 l 153 144 z "},"<":{"ha":811,"x_min":62,"x_max":741,"o":"m 62 275 l 62 371 l 741 659 l 741 549 l 195 325 l 741 97 l 741 -12 l 62 275 z "},"=":{"ha":811,"x_min":69,"x_max":741,"o":"m 741 490 l 741 393 l 69 393 l 69 490 l 741 490 m 741 252 l 741 154 l 69 154 l 69 252 l 741 252 z "},">":{"ha":811,"x_min":69,"x_max":748,"o":"m 748 371 l 748 275 l 69 -12 l 69 97 l 616 321 l 69 549 l 69 659 l 748 371 z "},"?":{"ha":1075,"x_min":305,"x_max":905,"o":"m 656 277 l 532 277 l 532 353 q 570 473 532 422 q 643 550 594 504 q 676 579 652 558 q 780 762 779 671 q 695 901 780 860 l 652 916 q 602 921 629 921 q 447 840 488 921 q 423 704 423 793 l 305 704 q 368 931 305 850 q 555 1026 431 1012 q 610 1029 582 1029 q 862 914 785 1029 l 884 872 q 905 762 905 822 q 834 583 905 665 q 766 514 808 551 q 665 396 679 433 q 656 342 656 375 l 656 277 m 656 144 l 656 0 l 532 0 l 532 144 l 656 144 z "},"@":{"ha":1409,"x_min":47,"x_max":1320,"o":"m 923 696 l 1038 696 l 913 307 q 897 237 897 258 q 937 182 897 200 q 966 176 951 176 q 1128 277 1055 176 q 1200 496 1200 375 q 1065 786 1200 663 q 732 922 927 914 l 711 922 q 349 781 507 922 l 302 733 q 165 379 165 576 q 311 49 165 183 q 686 -90 460 -90 q 954 -45 795 -90 l 993 -138 q 679 -197 837 -197 q 247 -48 429 -197 q 51 294 77 90 q 47 358 47 326 q 179 753 47 572 q 267 850 218 807 q 626 1021 416 986 q 729 1029 677 1029 q 1130 889 960 1029 q 1316 571 1291 758 q 1320 513 1320 542 q 1201 203 1320 345 q 943 79 1095 79 q 790 186 809 79 q 593 86 699 86 q 414 182 479 86 q 366 340 366 250 q 476 608 366 492 q 723 725 583 724 q 892 604 840 725 l 923 696 m 715 636 q 554 538 623 636 q 491 339 491 450 q 557 199 491 245 q 629 175 590 175 q 770 265 709 175 q 838 449 817 332 q 846 503 844 479 l 846 512 q 789 616 846 581 q 715 636 755 636 z "},"ក":{"ha":1831,"x_min":136,"x_max":1695,"o":"m 136 834 q 583 1017 542 1017 q 912 891 623 1017 q 1246 1017 1204 1017 q 1393 963 1287 1017 q 1695 868 1499 908 q 1604 752 1680 752 q 1596 753 1600 752 q 1242 880 1512 760 l 912 740 l 584 882 l 345 779 l 381 739 l 267 686 l 136 797 l 136 834 m 1628 68 q 1573 0 1628 0 q 1454 37 1517 0 q 1390 131 1390 75 q 1441 236 1390 187 q 1492 339 1492 285 l 1492 494 l 1234 629 l 983 494 l 983 68 q 928 0 983 0 q 809 37 873 0 q 746 131 746 75 q 797 236 746 187 q 848 339 848 285 l 848 494 l 590 629 l 339 494 l 339 326 q 410 239 339 298 q 460 138 460 197 q 452 90 460 115 q 361 0 425 0 q 250 51 296 0 q 203 197 203 102 l 203 528 q 252 607 203 581 l 590 766 l 916 614 l 1234 766 l 1573 607 q 1628 528 1628 581 l 1628 68 z "},"ខ":{"ha":1221,"x_min":203,"x_max":1017,"o":"m 203 753 q 323 956 203 895 q 610 1017 443 1017 q 898 960 778 1017 q 1017 719 1017 902 q 567 241 1017 477 l 631 166 l 943 476 q 945 454 945 465 q 830 183 945 346 q 642 0 703 3 q 462 135 582 0 q 397 259 397 206 q 447 336 397 305 q 882 719 882 545 q 610 882 882 882 q 339 753 339 882 q 404 665 339 665 q 476 759 404 746 q 498 761 488 761 q 571 709 551 761 q 578 666 578 686 q 550 594 578 627 q 404 543 505 543 q 203 753 203 543 z "},"គ":{"ha":1221,"x_min":136,"x_max":1085,"o":"m 136 861 l 305 977 q 387 1017 362 1017 q 608 945 412 1017 q 795 1017 770 1017 q 893 976 820 1017 q 1085 895 966 935 q 970 796 1023 796 q 951 800 960 796 q 789 886 889 820 l 608 801 l 399 875 l 296 806 l 330 752 l 253 713 l 136 824 l 136 861 m 203 534 q 254 614 203 587 l 610 787 l 966 614 q 1017 534 1017 587 l 1017 68 q 962 0 1017 0 q 843 37 907 0 q 780 131 780 75 q 831 236 780 187 q 882 339 882 285 l 882 500 l 610 635 l 339 500 l 339 326 q 410 239 339 298 q 460 138 460 197 q 452 90 460 115 q 361 0 425 0 q 250 51 296 0 q 203 197 203 102 l 203 534 z "},"ឃ":{"ha":1865,"x_min":136,"x_max":1797,"o":"m 968 126 q 746 0 891 35 l 484 0 q 279 105 403 0 q 136 323 156 210 l 361 598 l 368 644 q 368 651 368 648 q 305 793 368 697 q 272 819 288 819 q 262 817 267 819 q 254 805 254 812 q 275 777 254 793 q 298 726 298 757 q 294 698 298 713 q 219 651 281 651 q 208 652 214 651 q 136 753 136 656 q 208 934 136 850 q 313 1017 280 1017 q 416 888 345 1017 q 502 663 502 725 l 502 600 q 313 291 502 549 q 484 136 366 201 l 746 136 q 916 339 882 190 l 916 594 q 739 713 888 686 l 960 1017 q 1166 907 1105 907 q 1187 911 1178 907 q 1131 798 1173 814 q 1111 794 1122 794 q 969 847 1065 794 l 916 783 q 1051 608 1038 727 l 1051 339 q 1038 267 1047 300 q 1196 136 1099 191 l 1356 136 q 1526 339 1492 190 l 1526 594 q 1350 713 1499 686 l 1571 1017 q 1777 907 1715 907 q 1797 911 1788 907 q 1742 798 1784 814 q 1721 794 1733 794 q 1579 847 1675 794 l 1527 783 q 1662 608 1648 727 l 1662 339 q 1377 0 1634 68 l 1169 0 q 968 126 1084 0 z "},"ង":{"ha":1221,"x_min":136,"x_max":1017,"o":"m 368 1288 q 428 1248 428 1280 l 428 1245 q 455 1198 428 1213 q 557 1184 481 1184 q 709 1261 650 1184 q 794 1400 767 1337 q 834 1522 821 1462 q 885 1581 848 1581 q 922 1509 922 1581 q 892 1329 922 1436 q 777 1138 862 1221 q 557 1055 692 1055 q 380 1099 462 1055 q 299 1225 299 1143 q 356 1288 304 1288 l 368 1288 m 301 726 q 404 631 354 694 q 454 518 454 569 q 404 418 454 467 l 298 307 q 400 159 332 201 l 626 338 l 789 163 q 851 208 817 163 q 922 296 886 254 q 988 339 958 339 q 1017 281 1017 339 q 945 111 1017 222 q 790 0 873 0 q 616 153 745 0 l 423 0 q 239 118 342 0 q 136 351 136 237 l 311 510 q 136 682 246 635 q 195 817 136 739 q 513 1017 343 1017 l 659 1017 q 911 945 805 1017 q 1017 759 1017 873 q 903 590 1017 590 q 787 658 789 590 l 787 665 q 834 726 787 726 q 884 758 884 726 l 884 759 q 815 837 882 791 q 659 882 749 882 l 513 882 q 301 726 410 882 z "},"ច":{"ha":1221,"x_min":136,"x_max":1017,"o":"m 1017 332 q 935 104 1017 209 q 756 0 852 0 l 457 0 q 239 135 342 0 q 136 351 136 271 l 311 524 l 186 678 q 136 764 136 736 q 199 847 136 790 q 410 1017 387 1017 q 595 871 433 1017 q 762 1017 739 1017 q 962 852 785 1017 q 1017 768 1017 806 q 987 711 1017 730 q 964 705 977 705 q 897 730 937 705 q 756 857 836 768 l 595 699 l 421 861 l 285 749 q 404 638 354 694 q 454 532 454 583 q 415 437 454 481 l 304 321 q 475 136 361 189 l 728 136 q 852 222 817 163 q 882 320 882 274 q 882 332 882 326 q 854 400 882 400 q 807 359 834 400 q 746 427 746 380 q 854 536 746 536 q 1017 332 1017 536 z "},"ឆ":{"ha":1221,"x_min":136,"x_max":1017,"o":"m 1017 271 q 755 0 1017 0 q 570 106 639 0 q 452 170 530 170 l 373 170 l 373 85 q 305 0 373 0 q 186 71 237 0 q 136 224 136 142 q 237 305 136 305 l 237 610 q 186 739 237 691 q 136 809 136 787 q 199 878 136 831 q 410 1017 387 1017 q 595 897 433 1017 q 762 1017 739 1017 q 962 882 785 1017 q 1017 782 1017 844 q 984 749 1017 749 q 893 778 953 749 q 756 875 836 802 l 595 745 l 421 867 l 302 779 q 373 610 373 710 l 373 305 l 450 305 q 661 178 585 305 q 753 136 686 136 q 882 271 882 136 q 841 339 882 339 q 773 298 800 339 q 712 366 712 319 q 841 475 712 475 q 1017 271 1017 475 z "},"ជ":{"ha":1221,"x_min":136,"x_max":1051,"o":"m 922 938 q 924 987 924 964 q 924 1014 924 1001 q 904 1141 919 1082 q 899 1174 899 1160 q 922 1217 899 1206 q 936 1221 929 1221 q 989 1170 962 1221 q 1044 996 1021 1105 q 1051 916 1051 956 q 1027 773 1051 845 q 1017 748 1023 760 q 903 590 1014 590 q 787 658 789 590 l 787 665 q 834 726 787 726 q 884 758 884 726 l 884 759 q 815 837 882 791 q 659 882 749 882 l 513 882 q 301 726 410 882 q 404 631 354 694 q 454 518 454 569 q 404 418 454 467 l 298 307 q 400 159 332 201 l 626 338 l 789 163 q 851 208 817 163 q 922 296 886 254 q 988 339 958 339 q 1017 281 1017 339 q 945 111 1017 222 q 790 0 873 0 q 616 153 745 0 l 423 0 q 239 118 342 0 q 136 351 136 237 l 311 510 q 136 682 246 635 q 195 817 136 739 q 513 1017 343 1017 l 659 1017 q 911 945 805 1017 q 922 938 917 942 z "},"ឈ":{"ha":2441,"x_min":203,"x_max":2374,"o":"m 1101 0 q 873 123 979 0 q 747 358 768 245 l 941 551 l 941 551 q 882 643 941 597 l 610 858 l 339 643 l 339 326 q 410 239 339 298 q 460 138 460 197 q 452 90 460 115 q 361 0 425 0 q 250 51 296 0 q 203 197 203 102 l 203 616 q 254 742 203 700 l 610 1017 l 966 742 q 1049 651 1013 704 q 1085 559 1085 598 q 1036 444 1085 494 l 924 326 q 1101 136 985 215 l 1322 136 q 1492 339 1458 190 l 1492 594 q 1316 713 1465 686 l 1537 1017 q 1743 907 1681 907 q 1763 911 1754 907 q 1708 798 1750 814 q 1687 794 1699 794 q 1546 847 1641 794 l 1493 783 q 1628 608 1614 727 l 1628 339 q 1615 267 1624 300 q 1773 136 1675 191 l 1933 136 q 2102 339 2068 190 l 2102 594 q 1926 713 2075 686 l 2147 1017 q 2353 907 2292 907 q 2374 911 2365 907 q 2318 798 2360 814 q 2298 794 2309 794 q 2156 847 2252 794 l 2103 783 q 2238 608 2224 727 l 2238 339 q 1953 0 2211 68 l 1746 0 q 1544 126 1660 0 q 1322 0 1468 35 l 1101 0 z "},"ញ":{"ha":1865,"x_min":203,"x_max":1662,"o":"m 1421 -356 q 1473 -330 1421 -356 q 1526 -252 1526 -304 q 1459 -203 1526 -203 q 1401 -136 1401 -203 q 1459 -68 1401 -68 q 1662 -252 1662 -68 q 1521 -456 1662 -370 q 1013 -543 1381 -543 q 572 -468 749 -543 q 242 -220 394 -393 q 203 -140 203 -180 q 269 -102 203 -102 q 363 -140 334 -102 q 653 -346 513 -286 q 1013 -407 793 -407 q 1421 -356 1316 -407 m 339 251 q 398 136 353 156 q 438 184 422 136 q 454 271 454 233 q 412 326 454 326 q 339 251 339 326 m 1017 678 l 1017 68 q 962 0 1017 0 q 843 37 907 0 q 780 131 780 75 q 831 236 780 187 q 882 339 882 285 l 882 748 l 772 838 l 610 726 l 447 838 l 339 748 l 339 425 q 412 454 360 454 q 590 271 590 454 q 530 83 590 166 q 398 0 470 0 q 268 83 332 0 q 203 251 203 166 l 203 770 q 262 871 203 821 l 437 1017 l 610 897 l 781 1017 l 957 871 q 987 842 975 857 q 1238 1017 1202 1017 q 1662 773 1278 1017 l 1662 68 q 1607 0 1662 0 q 1488 37 1551 0 q 1424 131 1424 75 q 1475 236 1424 187 q 1526 339 1526 285 l 1526 700 l 1234 866 l 1017 678 z "},"ដ":{"ha":1221,"x_min":136,"x_max":1017,"o":"m 299 749 l 404 638 q 454 532 454 583 q 415 437 454 481 l 304 321 q 420 180 339 222 l 626 338 l 789 163 q 851 222 817 163 q 922 310 886 281 q 988 339 958 339 q 1017 281 1017 339 q 945 104 1017 209 q 790 0 873 0 q 603 140 745 0 l 423 0 q 239 135 342 0 q 136 351 136 271 l 311 524 l 186 678 q 136 764 136 736 q 199 847 136 790 q 229 874 214 861 l 340 975 q 408 1017 387 1017 q 514 949 430 1017 q 753 882 597 882 q 882 1008 882 882 q 848 1133 882 1078 q 837 1161 837 1149 q 888 1187 837 1187 q 1017 1008 1017 1187 q 753 746 1017 746 q 414 848 562 746 l 299 749 z "},"ឋ":{"ha":1255,"x_min":136,"x_max":1221,"o":"m 1051 339 q 766 0 1024 68 l 484 0 q 279 105 403 0 q 136 323 156 210 l 361 598 l 368 644 q 368 651 368 648 q 305 793 368 697 q 272 819 288 819 q 262 817 267 819 q 254 805 254 812 q 275 777 254 793 q 298 726 298 757 q 294 698 298 713 q 219 651 281 651 q 208 652 214 651 q 136 753 136 656 q 208 934 136 850 q 313 1017 280 1017 q 416 888 345 1017 q 502 663 502 725 l 502 600 q 313 291 502 549 q 484 136 366 201 l 746 136 q 916 339 882 190 l 916 594 q 780 713 916 686 l 974 1017 q 1101 924 1040 938 q 1108 922 1105 922 q 1143 1021 1143 922 q 1135 1145 1143 1071 q 1221 973 1221 1088 q 1165 806 1221 858 q 1107 784 1141 784 q 989 827 1059 784 l 950 769 q 1051 642 1051 720 l 1051 339 z "},"ឌ":{"ha":1221,"x_min":203,"x_max":1017,"o":"m 339 576 q 383 615 380 591 q 384 621 384 618 q 367 655 384 641 q 424 709 378 709 l 425 709 q 499 604 499 709 q 434 492 499 543 q 339 441 370 441 q 244 492 284 441 q 203 592 203 543 l 203 770 q 262 871 203 821 l 437 1017 l 610 897 l 781 1017 l 957 871 q 1017 770 1017 821 l 1017 748 q 839 435 1017 547 l 492 215 l 542 159 l 784 314 l 882 376 q 947 385 920 385 q 1017 327 1017 385 l 1017 68 q 949 0 1017 0 q 882 68 882 0 l 882 213 l 609 39 q 528 0 548 0 q 440 77 508 0 l 372 154 q 338 231 338 196 q 395 314 338 278 l 761 544 q 882 748 882 621 l 772 838 l 610 726 l 447 838 l 339 748 l 339 576 z "},"ឍ":{"ha":1865,"x_min":203,"x_max":1797,"o":"m 339 251 q 398 136 353 156 q 438 184 422 136 q 454 271 454 233 q 412 326 454 326 q 339 251 339 326 m 882 748 l 772 838 l 610 726 l 447 838 l 339 748 l 339 425 q 412 454 360 454 q 590 271 590 454 q 530 83 590 166 q 398 0 470 0 q 268 83 332 0 q 203 251 203 166 l 203 770 q 262 871 203 821 l 437 1017 l 610 897 l 781 1017 l 957 871 q 1017 770 1017 821 l 1017 305 l 1094 305 q 1305 178 1230 305 q 1398 136 1330 136 q 1526 271 1526 136 l 1526 594 q 1350 713 1499 686 l 1571 1017 q 1777 907 1715 907 q 1797 911 1788 907 q 1742 798 1784 814 q 1721 794 1733 794 q 1579 847 1675 794 l 1527 783 q 1662 608 1648 727 l 1662 271 q 1399 0 1662 0 q 1215 106 1283 0 q 1096 170 1174 170 l 1017 170 l 1017 85 q 949 0 1017 0 q 831 71 882 0 q 780 224 780 142 q 882 305 780 305 l 882 748 z "},"ណ":{"ha":2645,"x_min":203,"x_max":2441,"o":"m 2441 68 q 2386 0 2441 0 q 2267 37 2331 0 q 2204 131 2204 75 q 2255 236 2204 187 q 2306 339 2306 285 l 2306 625 l 1972 850 l 1666 650 l 1764 525 q 1801 416 1801 482 q 1784 315 1801 370 q 1653 88 1741 176 q 1482 0 1565 0 q 1254 153 1403 0 l 1081 0 q 883 122 1000 0 q 766 351 766 243 l 946 616 l 631 844 l 339 650 l 339 326 q 410 239 339 298 q 460 138 460 197 q 452 90 460 115 q 361 0 425 0 q 250 51 296 0 q 203 197 203 102 l 203 671 q 314 805 203 734 l 645 1017 q 1107 663 1085 713 q 1114 626 1114 645 q 1085 539 1114 587 l 928 307 q 1058 159 990 201 l 1284 345 q 1480 136 1436 136 q 1578 218 1508 136 q 1659 445 1649 301 l 1508 627 q 1641 805 1534 736 l 1972 1017 l 2302 810 q 2434 690 2412 741 q 2441 654 2441 673 l 2441 68 z "},"ត":{"ha":1221,"x_min":136,"x_max":1085,"o":"m 136 861 l 305 977 q 387 1017 362 1017 q 608 945 412 1017 q 795 1017 770 1017 q 893 976 820 1017 q 1085 895 966 935 q 970 796 1023 796 q 951 800 960 796 q 789 886 889 820 l 608 801 l 399 875 l 296 806 l 330 752 l 253 713 l 136 824 l 136 861 m 339 224 q 398 136 353 156 q 438 171 422 136 q 454 244 454 206 q 412 298 454 298 q 339 224 339 298 m 339 397 q 412 427 360 427 q 590 244 590 427 q 530 83 590 166 q 398 0 470 0 q 268 83 332 0 q 203 224 203 166 l 203 534 q 254 614 203 587 l 610 787 l 966 614 q 1017 534 1017 587 l 1017 68 q 962 0 1017 0 q 843 37 907 0 q 780 131 780 75 q 831 236 780 187 q 882 339 882 285 l 882 500 l 610 635 l 339 500 l 339 397 z "},"ថ":{"ha":1221,"x_min":136,"x_max":1017,"o":"m 1017 332 q 935 104 1017 209 q 756 0 852 0 l 457 0 q 239 135 342 0 q 136 351 136 271 l 311 524 l 186 678 q 136 764 136 736 q 199 847 136 790 l 340 975 q 408 1017 387 1017 q 514 949 430 1017 q 753 882 597 882 q 882 1008 882 882 q 848 1133 882 1078 q 837 1161 837 1149 q 888 1187 837 1187 q 1017 1008 1017 1187 q 753 746 1017 746 q 414 848 562 746 l 305 749 l 404 638 q 454 532 454 583 q 415 437 454 481 l 304 321 q 475 136 361 189 l 728 136 q 852 222 817 163 q 882 320 882 274 q 882 332 882 326 q 854 400 882 400 q 807 359 834 400 q 746 427 746 380 q 854 536 746 536 q 1017 332 1017 536 z "},"ទ":{"ha":1221,"x_min":136,"x_max":1017,"o":"m 136 351 l 311 510 q 136 682 246 635 q 195 817 136 739 q 513 1017 343 1017 l 659 1017 q 911 945 805 1017 q 1017 759 1017 873 q 903 590 1017 590 q 787 658 789 590 l 787 665 q 834 726 787 726 q 884 758 884 726 l 884 759 q 815 837 882 791 q 659 882 749 882 l 513 882 q 301 726 410 882 q 404 631 354 694 q 454 518 454 569 q 404 418 454 467 l 298 307 q 427 159 332 201 l 578 261 q 789 339 690 339 q 952 278 888 339 q 1017 136 1017 217 q 932 2 1017 2 q 836 64 846 2 q 882 136 882 102 q 789 203 882 203 q 645 153 710 203 l 450 0 q 245 105 369 0 q 136 351 136 237 z "},"ធ":{"ha":1221,"x_min":136,"x_max":1017,"o":"m 285 749 q 404 638 354 694 q 454 532 454 583 q 415 437 454 481 l 304 321 q 420 180 339 222 l 626 338 l 789 163 q 851 222 817 163 q 922 310 886 281 q 988 339 958 339 q 1017 281 1017 339 q 945 104 1017 209 q 790 0 873 0 q 603 140 745 0 l 423 0 q 239 135 342 0 q 136 351 136 271 l 311 524 l 186 678 q 136 764 136 736 q 199 847 136 790 q 410 1017 387 1017 q 595 871 433 1017 q 762 1017 739 1017 q 962 852 785 1017 q 1017 768 1017 806 q 987 711 1017 730 q 964 705 977 705 q 897 730 937 705 q 756 857 836 768 l 595 699 l 421 861 l 285 749 z "},"ន":{"ha":1221,"x_min":136,"x_max":1017,"o":"m 452 170 l 373 170 l 373 85 q 305 0 373 0 q 186 71 237 0 q 136 224 136 142 q 237 305 136 305 l 237 610 q 136 738 203 736 q 184 858 136 831 q 607 1017 590 1017 q 962 858 624 1017 q 1017 779 1017 831 l 1017 719 q 899 543 1017 543 q 780 610 780 543 q 831 678 780 678 q 882 745 882 678 q 607 880 624 880 q 302 760 590 880 q 373 610 373 729 l 373 305 l 450 305 q 661 178 585 305 q 753 136 686 136 q 841 178 801 136 q 916 262 882 220 q 983 305 949 305 q 1017 247 1017 305 q 934 94 1017 189 q 755 0 850 0 q 570 106 639 0 q 452 170 530 170 z "},"ប":{"ha":1221,"x_min":102,"x_max":1153,"o":"m 279 291 q 450 136 332 201 l 712 136 q 882 339 848 190 l 882 594 q 705 713 854 686 l 926 1017 q 1133 907 1071 907 q 1153 911 1144 907 q 1097 798 1139 814 q 1077 794 1088 794 q 935 847 1031 794 l 882 783 q 1017 608 1004 727 l 1017 339 q 712 0 990 68 l 450 0 q 245 105 369 0 q 102 323 122 210 l 311 510 q 102 693 237 652 l 323 1017 q 549 907 485 907 q 570 911 561 907 q 507 798 556 814 q 484 794 497 794 q 332 847 433 794 l 265 755 q 404 631 354 694 q 454 518 454 569 q 404 418 454 467 l 279 291 z "},"ផ":{"ha":1221,"x_min":136,"x_max":1017,"o":"m 945 104 q 909 52 945 104 q 790 0 873 0 q 603 140 745 0 l 423 0 q 239 135 342 0 q 136 351 136 271 l 311 524 l 186 678 q 136 764 136 736 q 199 847 136 790 l 340 975 q 408 1017 387 1017 q 514 949 430 1017 q 753 882 597 882 q 882 1008 882 882 q 848 1133 882 1078 q 837 1161 837 1149 q 888 1187 837 1187 q 1017 1008 1017 1187 q 753 746 1017 746 q 414 848 562 746 l 305 749 l 404 638 q 454 532 454 583 q 415 437 454 481 l 304 321 q 420 180 339 222 l 626 338 l 789 163 q 852 222 817 163 q 882 320 882 274 q 882 332 882 326 q 841 400 882 400 q 773 359 800 400 q 712 427 712 380 q 841 536 712 536 q 1017 332 1017 536 q 945 104 1017 209 z "},"ព":{"ha":1221,"x_min":203,"x_max":1017,"o":"m 339 251 q 398 136 353 156 q 438 184 422 136 q 454 271 454 233 q 412 326 454 326 q 339 251 339 326 m 1017 68 q 962 0 1017 0 q 843 37 907 0 q 780 131 780 75 q 831 236 780 187 q 882 339 882 285 l 882 748 l 772 838 l 610 726 l 447 838 l 339 748 l 339 425 q 412 454 360 454 q 590 271 590 454 q 530 83 590 166 q 398 0 470 0 q 268 83 332 0 q 203 251 203 166 l 203 770 q 262 871 203 821 l 437 1017 l 610 897 l 781 1017 l 957 871 q 1017 770 1017 821 l 1017 68 z "},"ភ":{"ha":1221,"x_min":136,"x_max":1085,"o":"m 136 861 l 305 977 q 387 1017 362 1017 q 608 945 412 1017 q 795 1017 770 1017 q 893 976 820 1017 q 1085 895 966 935 q 970 796 1023 796 q 951 800 960 796 q 789 886 889 820 l 608 801 l 399 875 l 296 806 l 330 752 l 253 713 l 136 824 l 136 861 m 376 517 q 426 407 426 481 l 426 271 q 379 64 426 129 q 269 0 333 0 q 170 133 170 0 q 290 326 290 190 l 290 407 q 203 534 290 481 q 254 614 203 587 l 610 787 l 966 614 q 1017 534 1017 587 l 1017 68 q 962 0 1017 0 q 843 37 907 0 q 780 131 780 75 q 831 236 780 187 q 882 339 882 285 l 882 500 l 610 635 l 376 517 z "},"ម":{"ha":1221,"x_min":102,"x_max":1153,"o":"m 421 437 q 404 418 414 428 l 279 291 q 450 136 332 201 l 712 136 q 882 339 848 190 l 882 437 l 421 437 m 882 573 l 882 594 q 705 713 854 686 l 926 1017 q 1133 907 1071 907 q 1153 911 1144 907 q 1097 798 1139 814 q 1077 794 1088 794 q 935 847 1031 794 l 882 783 q 1017 608 1004 727 l 1017 339 q 712 0 990 68 l 450 0 q 245 105 369 0 q 102 323 122 210 l 311 510 q 102 693 237 652 l 323 1017 q 549 907 485 907 q 570 911 561 907 q 507 798 556 814 q 484 794 497 794 q 332 847 433 794 l 265 755 q 404 631 354 694 q 441 573 429 601 l 882 573 z "},"យ":{"ha":1865,"x_min":203,"x_max":1797,"o":"m 968 126 q 746 0 891 35 l 505 0 q 313 105 423 0 q 203 323 203 210 l 203 684 q 310 894 203 770 q 475 1017 416 1017 q 564 956 535 1017 q 569 932 569 944 q 466 829 569 882 q 339 682 339 765 l 339 311 q 505 136 407 201 l 746 136 q 916 339 882 190 l 916 594 q 739 713 888 686 l 960 1017 q 1166 907 1105 907 q 1187 911 1178 907 q 1131 798 1173 814 q 1111 794 1122 794 q 969 847 1065 794 l 916 783 q 1051 608 1038 727 l 1051 339 q 1038 267 1047 300 q 1196 136 1099 191 l 1356 136 q 1526 339 1492 190 l 1526 594 q 1350 713 1499 686 l 1571 1017 q 1777 907 1715 907 q 1797 911 1788 907 q 1742 798 1784 814 q 1721 794 1733 794 q 1579 847 1675 794 l 1527 783 q 1662 608 1648 727 l 1662 339 q 1377 0 1634 68 l 1169 0 q 968 126 1084 0 z "},"រ":{"ha":576,"x_min":102,"x_max":543,"o":"m 373 332 q 312 75 373 149 q 180 0 251 0 q 102 112 102 0 q 170 220 102 163 q 237 339 237 278 l 237 594 q 102 713 237 686 l 296 1017 q 451 920 376 920 q 543 958 498 920 q 487 814 543 875 q 423 787 461 787 q 311 827 376 787 l 272 769 q 373 642 373 720 l 373 332 z "},"ល":{"ha":1831,"x_min":203,"x_max":1763,"o":"m 882 643 l 610 858 l 339 643 l 339 326 q 410 239 339 298 q 460 138 460 197 q 452 90 460 115 q 361 0 425 0 q 250 51 296 0 q 203 197 203 102 l 203 616 q 254 742 203 700 l 610 1017 l 966 742 q 1049 651 1013 704 q 1085 559 1085 598 q 1036 444 1085 494 l 924 326 q 1101 136 985 215 l 1350 136 q 1492 339 1458 190 l 1492 594 q 1316 713 1465 686 l 1537 1017 q 1743 907 1681 907 q 1763 911 1754 907 q 1708 798 1750 814 q 1687 794 1699 794 q 1546 847 1641 794 l 1493 783 q 1628 608 1614 727 l 1628 339 q 1350 0 1600 68 l 1101 0 q 873 123 979 0 q 747 358 768 245 l 941 551 l 941 551 q 882 643 941 597 z "},"វ":{"ha":576,"x_min":102,"x_max":543,"o":"m 237 594 q 102 713 237 686 l 296 1017 q 410 930 361 938 q 412 930 411 930 q 437 1023 437 930 q 422 1221 437 1095 q 543 973 543 1136 q 487 806 543 858 q 429 784 463 784 q 311 827 381 784 l 272 769 q 373 642 373 720 l 373 332 q 312 75 373 149 q 180 0 251 0 q 102 112 102 0 q 170 220 102 163 q 237 339 237 278 l 237 594 z "},"ឝ":{"ha":1221,"x_min":136,"x_max":1153,"o":"m 136 861 l 305 977 q 387 1017 362 1017 q 608 945 412 1017 q 795 1017 770 1017 q 893 976 820 1017 q 1085 895 966 935 q 970 796 1023 796 q 951 800 960 796 q 789 886 889 820 l 608 801 l 399 875 l 296 806 l 330 752 l 253 713 l 136 824 l 136 861 m 882 452 l 882 500 l 610 635 l 339 500 l 339 326 q 410 239 339 298 q 460 138 460 197 q 452 90 460 115 q 361 0 425 0 q 250 51 296 0 q 203 197 203 102 l 203 534 q 254 614 203 587 l 610 787 l 966 614 q 1017 534 1017 587 l 1017 452 l 1153 452 l 1153 316 l 1017 316 l 1017 68 q 962 0 1017 0 q 843 37 907 0 q 780 131 780 75 q 831 236 780 187 q 880 316 871 275 l 746 316 l 746 452 l 882 452 z "},"ឞ":{"ha":1221,"x_min":102,"x_max":1153,"o":"m 1017 404 l 1017 339 q 712 0 990 68 l 450 0 q 245 105 369 0 q 102 323 122 210 l 311 510 q 102 693 237 652 l 323 1017 q 549 907 485 907 q 570 911 561 907 q 507 798 556 814 q 484 794 497 794 q 332 847 433 794 l 265 755 q 404 631 354 694 q 454 518 454 569 q 404 418 454 467 l 279 291 q 450 136 332 201 l 712 136 q 882 339 848 190 l 882 404 l 746 404 l 746 540 l 882 540 l 882 594 q 705 713 854 686 l 926 1017 q 1133 907 1071 907 q 1153 911 1144 907 q 1097 798 1139 814 q 1077 794 1088 794 q 935 847 1031 794 l 882 783 q 1017 608 1004 727 l 1017 540 l 1153 540 l 1153 404 l 1017 404 z "},"ស":{"ha":1831,"x_min":203,"x_max":1763,"o":"m 751 679 q 557 741 686 718 l 766 1017 q 966 917 905 917 q 986 920 977 917 q 930 811 972 833 q 899 804 918 804 q 775 842 855 804 l 756 804 q 897 709 864 760 q 925 620 919 675 q 936 614 930 617 q 1021 480 1021 547 q 998 412 1021 446 l 932 311 q 1122 136 990 201 l 1329 136 q 1492 339 1458 190 l 1492 594 q 1316 713 1465 686 l 1537 1017 q 1743 907 1681 907 q 1763 911 1754 907 q 1708 798 1750 814 q 1687 794 1699 794 q 1546 847 1641 794 l 1493 783 q 1628 608 1614 727 l 1628 339 q 1329 0 1600 68 l 1122 0 q 903 105 1040 0 q 766 323 766 210 l 868 494 q 588 566 705 566 q 481 548 529 566 q 339 407 339 494 q 416 212 339 251 q 487 100 487 177 q 486 87 487 94 q 415 0 479 0 q 277 51 351 0 q 203 197 203 102 l 203 407 q 357 630 203 547 q 619 688 466 688 q 751 679 682 688 z "},"ហ":{"ha":1865,"x_min":102,"x_max":1662,"o":"m 1017 339 q 712 0 990 68 l 450 0 q 245 105 369 0 q 102 323 122 210 l 311 510 q 102 693 237 652 l 323 1017 q 549 907 485 907 q 570 911 561 907 q 507 798 556 814 q 484 794 497 794 q 332 847 433 794 l 265 755 q 404 631 354 694 q 454 518 454 569 q 404 418 454 467 l 279 291 q 450 136 332 201 l 712 136 q 882 339 848 190 l 882 594 q 812 694 882 670 q 789 723 789 702 q 814 761 789 743 q 1224 1017 1185 1017 q 1662 773 1264 1017 l 1662 68 q 1607 0 1662 0 q 1488 37 1551 0 q 1424 131 1424 75 q 1475 236 1424 187 q 1526 339 1526 285 l 1526 693 l 1220 866 l 1000 709 q 1017 642 1017 678 l 1017 339 z "},"ឡ":{"ha":1865,"x_min":136,"x_max":1797,"o":"m 1526 -494 l 1526 594 q 1390 713 1526 686 l 1584 1017 q 1777 907 1718 907 q 1797 911 1788 907 q 1742 798 1784 814 q 1722 794 1733 794 q 1593 847 1678 794 l 1554 789 q 1662 642 1662 734 l 1662 -494 q 1583 -644 1662 -644 q 1444 -606 1503 -644 l 1385 -568 l 1265 -493 l 1187 -606 q 1101 -644 1162 -644 q 991 -623 1040 -644 l 942 -602 q 848 -498 848 -559 q 885 -396 848 -437 l 923 -355 q 949 -299 949 -328 q 916 -271 949 -271 q 850 -207 850 -271 q 851 -203 850 -205 q 918 -136 852 -136 q 1085 -299 1085 -136 q 1034 -412 1085 -357 l 981 -466 l 1085 -510 l 1248 -330 l 1526 -494 m 136 351 l 311 510 q 136 682 246 635 q 195 817 136 739 q 513 1017 343 1017 l 659 1017 q 911 945 805 1017 q 1017 759 1017 873 q 903 590 1017 590 q 787 658 789 590 l 787 665 q 834 726 787 726 q 884 758 884 726 l 884 759 q 815 837 882 791 q 659 882 749 882 l 513 882 q 301 726 410 882 q 404 631 354 694 q 454 518 454 569 q 404 418 454 467 l 298 307 q 427 159 332 201 l 578 261 q 789 339 690 339 q 952 278 888 339 q 1017 136 1017 217 q 932 2 1017 2 q 836 64 846 2 q 882 136 882 102 q 789 203 882 203 q 645 153 710 203 l 450 0 q 245 105 369 0 q 136 351 136 237 z "},"អ":{"ha":1221,"x_min":102,"x_max":1153,"o":"m 373 437 l 373 332 q 312 75 373 149 q 180 0 251 0 q 102 112 102 0 q 170 220 102 163 q 237 339 237 278 l 237 594 q 102 713 237 686 l 296 1017 q 522 907 458 907 q 543 911 534 907 q 480 798 529 814 q 457 794 470 794 q 304 847 406 794 l 265 789 q 373 642 373 734 l 373 573 l 882 573 l 882 594 q 746 713 882 686 l 940 1017 q 1133 907 1074 907 q 1153 911 1144 907 q 1097 798 1139 814 q 1078 794 1088 794 q 949 847 1034 794 l 909 789 q 1017 642 1017 734 l 1017 332 q 956 75 1017 149 q 824 0 895 0 q 746 112 746 0 q 814 220 746 163 q 882 339 882 278 l 882 437 l 373 437 z "},"ឣ":{"ha":1221,"x_min":102,"x_max":1153,"o":"m 373 437 l 373 332 q 312 75 373 149 q 180 0 251 0 q 102 112 102 0 q 170 220 102 163 q 237 339 237 278 l 237 594 q 102 713 237 686 l 296 1017 q 522 907 458 907 q 543 911 534 907 q 480 798 529 814 q 457 794 470 794 q 304 847 406 794 l 265 789 q 373 642 373 734 l 373 573 l 882 573 l 882 594 q 746 713 882 686 l 940 1017 q 1133 907 1074 907 q 1153 911 1144 907 q 1097 798 1139 814 q 1078 794 1088 794 q 949 847 1034 794 l 909 789 q 1017 642 1017 734 l 1017 332 q 956 75 1017 149 q 824 0 895 0 q 746 112 746 0 q 814 220 746 163 q 882 339 882 278 l 882 437 l 373 437 z "},"ឤ":{"ha":1865,"x_min":102,"x_max":1662,"o":"m 1017 332 q 956 75 1017 149 q 824 0 895 0 q 746 112 746 0 q 814 220 746 163 q 882 339 882 278 l 882 437 l 373 437 l 373 332 q 312 75 373 149 q 180 0 251 0 q 102 112 102 0 q 170 220 102 163 q 237 339 237 278 l 237 594 q 102 713 237 686 l 296 1017 q 522 907 458 907 q 543 911 534 907 q 480 798 529 814 q 457 794 470 794 q 304 847 406 794 l 265 789 q 373 642 373 734 l 373 573 l 882 573 l 882 594 q 812 694 882 670 q 789 723 789 702 q 814 761 789 743 q 1224 1017 1185 1017 q 1662 773 1264 1017 l 1662 68 q 1607 0 1662 0 q 1488 37 1551 0 q 1424 131 1424 75 q 1475 236 1424 187 q 1526 339 1526 285 l 1526 693 l 1220 866 l 1000 709 q 1017 642 1017 678 l 1017 332 z "},"ឥ":{"ha":1221,"x_min":203,"x_max":1017,"o":"m 339 224 q 398 136 353 156 q 438 171 422 136 q 454 244 454 206 q 412 298 454 298 q 339 224 339 298 m 595 779 l 610 787 l 966 614 q 1017 534 1017 587 l 1017 68 q 962 0 1017 0 q 843 37 907 0 q 780 131 780 75 q 831 236 780 187 q 882 339 882 285 l 882 500 l 610 635 l 339 500 l 339 397 q 412 427 360 427 q 590 244 590 427 q 530 83 590 166 q 398 0 470 0 q 268 83 332 0 q 203 224 203 166 l 203 534 q 254 614 203 587 l 446 707 l 418 724 q 343 789 352 763 q 342 806 342 798 q 377 888 342 849 l 469 975 q 537 1017 515 1017 q 643 949 559 1017 q 773 902 706 902 q 882 1008 882 902 q 848 1133 882 1078 q 837 1161 837 1149 q 888 1187 837 1187 q 1017 1008 1017 1187 q 773 766 1017 766 q 543 848 670 766 l 517 824 l 595 779 z "},"ឦ":{"ha":1763,"x_min":203,"x_max":1560,"o":"m 339 -480 q 398 -545 353 -530 q 438 -519 422 -545 q 454 -465 454 -493 q 412 -425 454 -425 q 339 -480 339 -425 m 339 224 q 398 136 353 156 q 438 171 422 136 q 454 244 454 206 q 412 298 454 298 q 339 224 339 298 m 610 787 l 966 614 q 1017 534 1017 587 l 1017 68 q 962 0 1017 0 q 843 37 907 0 q 780 131 780 75 q 831 236 780 187 q 882 339 882 285 l 882 500 l 610 635 l 339 500 l 339 397 q 412 427 360 427 q 590 244 590 427 q 530 83 590 166 q 398 0 470 0 q 268 83 332 0 q 203 224 203 166 l 203 534 q 254 614 203 587 l 610 787 m 882 -298 l 610 -199 l 339 -298 l 339 -353 q 412 -331 360 -331 q 590 -465 590 -331 q 530 -583 590 -522 q 398 -644 470 -644 q 268 -583 332 -644 q 203 -480 203 -522 l 203 -252 q 254 -194 203 -214 l 610 -68 l 966 -194 q 1017 -252 1017 -214 l 1017 -373 q 1153 -509 1078 -509 l 1289 -509 q 1424 -373 1424 -509 l 1424 1153 q 1289 1424 1424 1424 q 1030 1358 1100 1424 q 944 1306 985 1306 q 905 1319 924 1306 q 878 1364 878 1337 q 916 1444 878 1397 q 1064 1773 1042 1599 q 1143 1831 1072 1831 q 1193 1750 1193 1831 q 1184 1668 1193 1716 q 1147 1544 1173 1606 q 1289 1560 1192 1560 q 1560 1153 1560 1560 l 1560 -373 q 1289 -644 1560 -644 l 1153 -644 q 1017 -595 1078 -644 q 962 -644 1017 -644 q 843 -617 907 -644 q 780 -548 780 -589 q 831 -471 780 -507 q 882 -395 882 -435 l 882 -298 z "},"ឧ":{"ha":1221,"x_min":203,"x_max":1017,"o":"m 882 159 q 642 0 675 1 q 462 135 582 0 q 397 259 397 206 q 447 336 397 305 q 882 719 882 640 q 610 882 882 882 q 339 753 339 882 q 404 665 339 665 q 476 759 404 746 q 498 761 488 761 q 571 709 551 761 q 578 666 578 686 q 550 594 578 627 q 404 543 505 543 q 203 753 203 543 q 323 956 203 895 q 610 1017 443 1017 q 898 960 778 1017 q 1017 719 1017 902 q 567 241 1017 545 l 644 153 l 882 321 q 947 330 920 330 q 1017 273 1017 330 l 1017 27 q 987 -100 1017 -41 q 929 -142 966 -142 q 895 -134 913 -142 q 851 -87 851 -116 q 858 -64 851 -77 q 882 27 882 -20 l 882 159 z "},"ឨ":{"ha":1221,"x_min":136,"x_max":1085,"o":"m 882 159 q 642 0 675 1 q 462 135 582 0 q 397 259 397 206 q 447 336 397 305 q 882 719 882 640 q 610 882 882 882 q 339 753 339 882 q 404 665 339 665 q 476 759 404 746 q 498 761 488 761 q 571 709 551 761 q 578 666 578 686 q 550 594 578 627 q 404 543 505 543 q 203 753 203 543 q 323 956 203 895 q 610 1017 443 1017 q 898 960 778 1017 q 1017 719 1017 902 q 567 241 1017 545 l 644 153 l 882 321 q 947 330 920 330 q 1017 273 1017 330 l 1017 27 q 987 -100 1017 -41 q 929 -142 966 -142 q 895 -134 913 -142 q 851 -87 851 -116 q 858 -64 851 -77 q 882 27 882 -20 l 882 159 m 136 1219 q 178 1281 136 1252 l 305 1367 q 387 1408 362 1408 q 608 1329 412 1408 q 795 1408 770 1408 q 893 1367 820 1408 q 1085 1286 966 1326 q 970 1187 1023 1187 q 951 1190 960 1187 q 789 1277 889 1211 l 608 1187 l 399 1265 l 348 1226 q 216 1187 296 1187 q 136 1219 136 1187 z "},"ឩ":{"ha":1257,"x_min":203,"x_max":1257,"o":"m 882 159 q 642 0 675 1 q 462 135 582 0 q 397 259 397 206 q 447 336 397 305 q 882 719 882 640 q 610 882 882 882 q 339 753 339 882 q 404 665 339 665 q 476 759 404 746 q 498 761 488 761 q 571 709 551 761 q 578 666 578 686 q 550 594 578 627 q 404 543 505 543 q 203 753 203 543 q 323 956 203 895 q 610 1017 443 1017 q 898 960 778 1017 q 1017 719 1017 902 q 567 241 1017 545 l 644 153 l 882 321 q 947 330 920 330 q 1017 273 1017 330 l 1017 27 q 987 -100 1017 -41 q 929 -142 966 -142 q 895 -134 913 -142 q 851 -87 851 -116 q 858 -64 851 -77 q 882 27 882 -20 l 882 159 m 1149 413 q 1257 243 1257 413 l 1257 -75 q 1190 -143 1257 -143 q 1122 -75 1122 -143 l 1122 223 q 1091 284 1122 271 q 1061 355 1061 298 q 1149 413 1061 413 z "},"ឪ":{"ha":1221,"x_min":136,"x_max":1017,"o":"m 186 1112 q 136 1198 136 1170 q 199 1281 136 1224 l 340 1409 q 408 1451 387 1451 q 514 1383 430 1451 q 753 1316 597 1316 q 882 1442 882 1316 q 848 1567 882 1512 q 837 1595 837 1584 q 888 1621 837 1621 q 1017 1442 1017 1621 q 753 1180 1017 1180 q 414 1282 562 1180 l 305 1183 l 413 1062 l 289 985 l 186 1112 m 882 159 q 642 0 675 1 q 462 135 582 0 q 397 259 397 206 q 447 336 397 305 q 882 719 882 640 q 610 882 882 882 q 339 753 339 882 q 404 665 339 665 q 476 759 404 746 q 498 761 488 761 q 571 709 551 761 q 578 666 578 686 q 550 594 578 627 q 404 543 505 543 q 203 753 203 543 q 323 956 203 895 q 610 1017 443 1017 q 898 960 778 1017 q 1017 719 1017 902 q 567 241 1017 545 l 644 153 l 882 321 q 947 330 920 330 q 1017 273 1017 330 l 1017 27 q 987 -100 1017 -41 q 929 -142 966 -142 q 895 -134 913 -142 q 851 -87 851 -116 q 858 -64 851 -77 q 882 27 882 -20 l 882 159 z "},"ឫ":{"ha":1221,"x_min":102,"x_max":1153,"o":"m 279 291 q 450 136 332 201 l 712 136 q 882 339 848 190 l 882 594 q 705 713 854 686 l 926 1017 q 1133 907 1071 907 q 1153 911 1144 907 q 1097 798 1139 814 q 1077 794 1088 794 q 935 847 1031 794 l 882 783 q 1017 608 1004 727 l 1017 339 q 712 0 990 68 l 450 0 q 245 105 369 0 q 102 323 122 210 l 311 510 q 102 693 237 652 l 323 1017 q 549 907 485 907 q 570 911 561 907 q 507 798 556 814 q 484 794 497 794 q 332 847 433 794 l 265 755 q 404 631 354 694 q 454 518 454 569 q 404 418 454 467 l 279 291 m 709 -64 q 753 -45 732 -45 q 806 -77 781 -45 q 827 -165 824 -132 q 834 -228 834 -196 q 807 -357 834 -292 q 650 -531 766 -453 q 432 -635 549 -607 q 374 -644 399 -644 q 311 -608 328 -644 q 307 -586 307 -596 q 382 -522 307 -546 q 566 -425 477 -491 q 701 -216 701 -323 q 684 -140 701 -179 q 674 -116 674 -129 q 709 -64 674 -92 z "},"ឬ":{"ha":1221,"x_min":102,"x_max":1153,"o":"m 279 291 q 450 136 332 201 l 712 136 q 882 339 848 190 l 882 594 q 705 713 854 686 l 926 1017 q 1133 907 1071 907 q 1153 911 1144 907 q 1097 798 1139 814 q 1077 794 1088 794 q 935 847 1031 794 l 882 783 q 1017 608 1004 727 l 1017 339 q 712 0 990 68 l 450 0 q 245 105 369 0 q 102 323 122 210 l 311 510 q 102 693 237 652 l 323 1017 q 549 907 485 907 q 570 911 561 907 q 507 798 556 814 q 484 794 497 794 q 332 847 433 794 l 265 755 q 404 631 354 694 q 454 518 454 569 q 404 418 454 467 l 279 291 m 709 -64 q 753 -45 732 -45 q 806 -77 781 -45 q 827 -165 824 -132 q 883 -278 847 -260 q 949 -336 918 -296 q 962 -393 962 -351 q 913 -452 962 -439 q 903 -454 908 -454 q 810 -336 859 -454 q 650 -531 766 -453 q 432 -635 549 -607 q 374 -644 399 -644 q 311 -608 328 -644 q 307 -586 307 -596 q 382 -522 307 -546 q 566 -425 477 -491 q 708 -208 708 -298 q 684 -140 708 -171 q 674 -116 674 -129 q 709 -64 674 -92 z "},"ឭ":{"ha":1221,"x_min":203,"x_max":1017,"o":"m 339 251 q 398 136 353 156 q 438 184 422 136 q 454 271 454 233 q 412 326 454 326 q 339 251 339 326 m 1017 68 q 962 0 1017 0 q 843 37 907 0 q 780 131 780 75 q 831 236 780 187 q 882 339 882 285 l 882 748 l 772 838 l 610 726 l 447 838 l 339 748 l 339 425 q 412 454 360 454 q 590 271 590 454 q 530 83 590 166 q 398 0 470 0 q 268 83 332 0 q 203 251 203 166 l 203 770 q 262 871 203 821 l 437 1017 l 610 897 l 781 1017 l 957 871 q 1017 770 1017 821 l 1017 68 m 709 -64 q 753 -45 732 -45 q 806 -77 781 -45 q 827 -165 824 -132 q 834 -228 834 -196 q 807 -357 834 -292 q 650 -531 766 -453 q 432 -635 549 -607 q 374 -644 399 -644 q 311 -608 328 -644 q 307 -586 307 -596 q 382 -522 307 -546 q 566 -425 477 -491 q 701 -216 701 -323 q 684 -140 701 -179 q 674 -116 674 -129 q 709 -64 674 -92 z "},"ឮ":{"ha":1221,"x_min":203,"x_max":1017,"o":"m 339 251 q 398 136 353 156 q 438 184 422 136 q 454 271 454 233 q 412 326 454 326 q 339 251 339 326 m 1017 68 q 962 0 1017 0 q 843 37 907 0 q 780 131 780 75 q 831 236 780 187 q 882 339 882 285 l 882 748 l 772 838 l 610 726 l 447 838 l 339 748 l 339 425 q 412 454 360 454 q 590 271 590 454 q 530 83 590 166 q 398 0 470 0 q 268 83 332 0 q 203 251 203 166 l 203 770 q 262 871 203 821 l 437 1017 l 610 897 l 781 1017 l 957 871 q 1017 770 1017 821 l 1017 68 m 709 -64 q 753 -45 732 -45 q 806 -77 781 -45 q 827 -165 824 -132 q 883 -278 847 -260 q 949 -336 918 -296 q 962 -393 962 -351 q 913 -452 962 -439 q 903 -454 908 -454 q 810 -336 859 -454 q 650 -531 766 -453 q 432 -635 549 -607 q 374 -644 399 -644 q 311 -608 328 -644 q 307 -586 307 -596 q 382 -522 307 -546 q 566 -425 477 -491 q 708 -208 708 -298 q 684 -140 708 -171 q 674 -116 674 -129 q 709 -64 674 -92 z "},"ឯ":{"ha":1221,"x_min":136,"x_max":1017,"o":"m 315 294 q 420 180 351 216 l 626 338 l 789 163 q 852 222 817 163 q 882 320 882 274 q 882 332 882 326 l 882 1017 q 804 1213 882 1119 l 708 1320 q 657 1396 657 1360 q 673 1434 657 1416 q 715 1457 692 1457 q 785 1418 746 1457 l 897 1301 q 1017 1017 1017 1180 l 1017 332 q 945 104 1017 209 q 790 0 873 0 q 603 140 745 0 l 423 0 q 239 136 342 0 q 136 323 153 248 l 361 598 l 368 644 q 368 651 368 648 q 305 793 368 697 q 272 819 288 819 q 262 817 267 819 q 254 805 254 812 q 275 777 254 793 q 298 726 298 757 q 294 698 298 713 q 219 651 281 651 q 208 652 214 651 q 136 753 136 656 q 208 934 136 850 q 313 1017 280 1017 q 416 888 345 1017 q 502 663 502 725 l 502 600 q 315 294 502 549 z "},"ឰ":{"ha":1221,"x_min":203,"x_max":1017,"o":"m 870 -172 q 752 -303 825 -247 q 827 -327 798 -327 q 852 -321 842 -327 q 882 -245 882 -302 q 870 -172 882 -174 m 509 -479 q 581 -511 509 -509 l 583 -511 q 682 -366 654 -511 q 580 -438 606 -418 q 509 -479 553 -459 m 339 251 q 398 136 353 156 q 438 184 422 136 q 454 271 454 233 q 412 326 454 326 q 339 251 339 326 m 849 81 q 866 139 849 81 q 882 339 882 197 l 882 748 l 772 838 l 610 726 l 447 838 l 339 748 l 339 425 q 412 454 360 454 q 590 271 590 454 q 530 83 590 166 q 398 0 470 0 q 268 83 332 0 q 203 251 203 166 l 203 770 q 262 871 203 821 l 437 1017 l 610 897 l 781 1017 l 957 871 q 1017 770 1017 821 l 1017 -245 q 940 -444 1017 -401 q 864 -463 903 -463 q 774 -439 821 -463 q 699 -597 766 -550 q 559 -644 633 -644 q 429 -595 486 -644 q 373 -471 373 -545 q 410 -377 373 -397 q 715 -153 613 -271 q 849 81 817 -35 z "},"ឱ":{"ha":1221,"x_min":203,"x_max":1017,"o":"m 648 1017 q 898 960 791 1010 q 1017 719 1017 902 q 567 241 1017 545 l 644 153 l 882 321 q 947 330 920 330 q 1017 273 1017 330 l 1017 27 q 987 -100 1017 -41 q 929 -142 966 -142 q 895 -134 913 -142 q 851 -87 851 -116 q 858 -64 851 -77 q 882 27 882 -20 l 882 159 q 642 0 675 1 q 462 135 582 0 q 397 259 397 206 q 447 336 397 305 q 882 719 882 640 q 610 882 882 882 q 339 753 339 882 q 404 665 339 665 q 476 759 404 746 q 498 761 488 761 q 571 709 551 761 q 578 666 578 686 q 550 594 578 627 q 404 543 505 543 q 203 753 203 543 q 323 956 203 895 q 479 1006 393 991 l 348 1098 q 291 1183 291 1138 q 326 1258 291 1219 l 405 1348 q 492 1392 445 1392 q 578 1358 532 1392 l 736 1231 q 873 1160 801 1182 q 929 1100 929 1144 q 925 1074 929 1088 q 865 1025 911 1025 q 829 1031 848 1025 q 646 1123 726 1062 l 489 1243 l 437 1187 l 648 1017 z "},"ឲ":{"ha":1221,"x_min":203,"x_max":1017,"o":"m 884 846 q 746 882 828 882 l 475 882 q 339 746 339 882 l 339 271 q 475 136 339 136 l 746 136 q 882 271 882 136 q 855 326 882 301 q 784 351 836 345 q 767 339 776 345 l 747 327 q 701 311 721 311 q 658 337 674 311 q 648 367 648 352 q 691 427 648 398 q 851 551 801 496 q 882 604 882 587 q 851 635 882 626 q 768 644 821 644 q 685 635 714 644 q 656 604 656 625 q 683 606 671 606 q 746 547 746 606 q 644 475 746 475 q 555 517 591 475 q 520 604 520 559 q 583 730 520 680 q 768 780 646 780 q 954 730 890 780 q 1017 604 1017 680 q 990 532 1017 573 q 884 422 958 480 q 975 377 942 408 q 1017 271 1017 336 q 746 0 1017 0 l 475 0 q 203 271 203 0 l 203 746 q 475 1017 203 1017 l 746 1017 q 956 933 895 1017 q 994 854 994 881 q 979 830 994 837 q 949 823 965 823 q 884 846 920 823 z "},"ឳ":{"ha":1221,"x_min":203,"x_max":1017,"o":"m 1017 1156 q 907 1019 1017 1019 q 829 1031 873 1019 q 646 1123 726 1062 l 489 1243 l 437 1187 l 648 1017 q 898 960 791 1010 q 1017 719 1017 902 q 567 241 1017 545 l 644 153 l 882 321 q 947 330 920 330 q 1017 273 1017 330 l 1017 27 q 987 -100 1017 -41 q 929 -142 966 -142 q 895 -134 913 -142 q 851 -87 851 -116 q 858 -64 851 -77 q 882 27 882 -20 l 882 159 q 642 0 675 1 q 462 135 582 0 q 397 259 397 206 q 447 336 397 305 q 882 719 882 640 q 610 882 882 882 q 339 753 339 882 q 404 665 339 665 q 476 759 404 746 q 498 761 488 761 q 571 709 551 761 q 578 666 578 686 q 550 594 578 627 q 404 543 505 543 q 203 753 203 543 q 323 956 203 895 q 479 1006 393 991 l 348 1098 q 291 1183 291 1138 q 326 1258 291 1219 l 405 1348 q 492 1392 445 1392 q 578 1358 532 1392 l 736 1231 q 873 1160 801 1182 q 882 1158 878 1159 l 882 1424 q 949 1492 882 1492 q 1017 1424 1017 1492 l 1017 1156 z "},"ា":{"ha":543,"x_min":-397,"x_max":339,"o":"m 203 700 l -89 866 l -343 645 l -397 789 q -85 1017 -125 1017 q 339 773 -45 1017 l 339 68 q 284 0 339 0 q 165 37 229 0 q 102 131 102 75 q 153 236 102 187 q 203 339 203 285 l 203 700 z "},"ិ":{"ha":0,"x_min":-990,"x_max":-231,"o":"m -990 1322 q -949 1458 -990 1390 l -868 1594 q -793 1662 -827 1662 q -705 1632 -758 1662 l -337 1425 q -231 1311 -232 1367 q -231 1310 -231 1310 q -329 1255 -231 1255 l -841 1255 q -990 1322 -990 1255 m -841 1390 l -529 1390 l -774 1512 l -841 1390 z "},"ី":{"ha":0,"x_min":-990,"x_max":-231,"o":"m -841 1390 l -529 1390 l -774 1512 l -841 1390 m -231 1311 q -329 1255 -231 1255 l -841 1255 q -990 1322 -990 1255 q -949 1458 -990 1390 l -868 1594 q -793 1662 -827 1662 q -705 1632 -758 1662 l -366 1441 l -366 1628 q -298 1695 -366 1695 q -231 1628 -231 1695 l -231 1311 z "},"ឹ":{"ha":0,"x_min":-990,"x_max":-231,"o":"m -841 1390 l -529 1390 l -774 1512 l -841 1390 m -451 1526 q -437 1488 -451 1501 q -400 1475 -425 1475 q -361 1488 -374 1475 q -349 1526 -349 1501 q -361 1564 -349 1552 q -400 1577 -374 1577 q -437 1564 -425 1577 q -451 1526 -451 1552 m -282 1389 q -231 1311 -231 1350 q -231 1310 -231 1310 q -329 1255 -231 1255 l -841 1255 q -990 1322 -990 1255 q -949 1458 -990 1390 l -868 1594 q -793 1662 -827 1662 q -705 1632 -758 1662 l -568 1555 q -527 1653 -562 1618 q -400 1695 -485 1695 q -272 1653 -314 1695 q -231 1526 -231 1611 q -272 1398 -231 1441 q -282 1389 -277 1394 z "},"ឺ":{"ha":0,"x_min":-990,"x_max":-231,"o":"m -841 1390 l -529 1390 l -774 1512 l -841 1390 m -441 1483 l -366 1441 l -366 1628 q -298 1695 -366 1695 q -231 1628 -231 1695 l -231 1311 q -329 1255 -231 1255 l -841 1255 q -990 1322 -990 1255 q -949 1458 -990 1390 l -868 1594 q -793 1662 -827 1662 q -705 1632 -758 1662 l -576 1559 l -576 1628 q -509 1695 -576 1695 q -441 1628 -441 1695 l -441 1483 z "},"ុ":{"ha":0,"x_min":-495,"x_max":-271,"o":"m -407 -102 q -271 -237 -271 -102 l -271 -576 q -339 -644 -271 -644 q -407 -576 -407 -644 l -407 -305 q -451 -244 -407 -258 q -495 -166 -495 -231 q -407 -102 -495 -102 z "},"ូ":{"ha":0,"x_min":-820,"x_max":-170,"o":"m -416 -245 q -663 -475 -531 -389 l -663 -481 q -618 -518 -663 -514 l -612 -518 q -480 -452 -564 -518 q -294 -262 -391 -382 q -185 -151 -203 -151 q -182 -152 -184 -151 q -170 -197 -170 -161 q -197 -284 -170 -233 q -631 -644 -390 -644 q -805 -549 -754 -644 q -820 -493 -820 -520 q -740 -372 -820 -429 q -528 -176 -555 -210 q -564 -125 -564 -152 q -559 -106 -564 -116 q -468 -68 -543 -68 q -382 -121 -403 -68 q -377 -152 -377 -136 q -416 -245 -377 -194 z "},"ួ":{"ha":0,"x_min":-929,"x_max":-170,"o":"m -482 -486 q -360 -347 -402 -430 q -290 -186 -318 -263 q -224 -123 -267 -123 l -221 -123 q -171 -161 -177 -125 q -170 -178 -170 -169 q -184 -251 -170 -209 q -492 -644 -281 -579 l -590 -547 q -774 -644 -687 -644 q -917 -522 -872 -636 q -929 -464 -929 -492 q -840 -337 -929 -389 q -636 -198 -717 -265 q -566 -101 -566 -139 q -567 -91 -566 -96 q -477 -68 -525 -68 q -427 -106 -431 -68 l -427 -111 q -488 -230 -427 -151 q -766 -448 -553 -314 q -785 -480 -785 -465 q -752 -518 -785 -500 q -587 -401 -708 -518 l -482 -486 z "},"ើ":{"ha":0,"x_min":-990,"x_max":-231,"o":"m -841 1390 l -529 1390 l -774 1512 l -841 1390 m -231 1311 q -329 1255 -231 1255 l -841 1255 q -990 1322 -990 1255 q -949 1458 -990 1390 l -868 1594 q -793 1662 -827 1662 q -705 1632 -758 1662 l -366 1441 l -366 1628 q -298 1695 -366 1695 q -231 1628 -231 1695 l -231 1311 z "},"ឿ":{"ha":543,"x_min":-543,"x_max":339,"o":"m -393 1492 l -81 1492 l -327 1613 l -393 1492 m 217 1441 q 339 1099 339 1343 l 339 -441 q 136 -644 339 -644 l -136 -644 q -339 -441 -339 -644 l -339 -203 q -271 -136 -339 -136 q -203 -203 -203 -136 l -203 -441 q -136 -509 -203 -509 l 136 -509 q 203 -441 203 -509 l 203 1099 q 37 1356 203 1315 l -393 1356 q -543 1424 -543 1356 q -502 1560 -543 1492 l -420 1695 q -345 1763 -380 1763 q -258 1733 -311 1763 l -129 1661 l -129 1729 q -61 1797 -129 1797 q 7 1729 7 1797 l 7 1585 l 81 1543 l 81 1729 q 149 1797 81 1797 q 217 1729 217 1797 l 217 1441 z "},"ៀ":{"ha":543,"x_min":-342,"x_max":339,"o":"m 339 1153 l 339 -441 q 136 -644 339 -644 l -136 -644 q -339 -441 -339 -644 l -339 -203 q -271 -136 -339 -136 q -203 -203 -203 -136 l -203 -441 q -136 -509 -203 -509 l 136 -509 q 203 -441 203 -509 l 203 1153 q 68 1424 203 1424 q -191 1358 -121 1424 q -277 1306 -236 1306 q -316 1319 -297 1306 q -342 1364 -342 1337 q -304 1444 -342 1397 q -157 1773 -179 1599 q -78 1831 -149 1831 q -28 1750 -28 1831 q -37 1668 -28 1716 q -73 1544 -48 1606 q 68 1560 -28 1560 q 339 1153 339 1560 z "},"េ":{"ha":543,"x_min":203,"x_max":475,"o":"m 339 775 l 339 339 q 407 220 339 278 q 475 112 475 163 q 397 0 475 0 q 264 58 326 0 q 203 271 203 115 l 203 1017 l 262 1017 q 460 860 401 860 q 475 863 468 860 q 412 750 461 766 q 399 748 406 748 q 339 775 373 748 z "},"ែ":{"ha":543,"x_min":136,"x_max":575,"o":"m 559 1730 q 575 1693 575 1723 q 513 1487 575 1634 l 418 1263 l 264 1248 l 270 1184 l 340 1193 q 360 1194 351 1194 q 418 1157 411 1194 q 419 1148 419 1152 q 359 1104 419 1112 l 225 1086 q 212 1085 218 1085 q 151 1151 157 1085 l 136 1299 q 136 1314 136 1307 q 195 1381 136 1374 l 336 1397 l 423 1574 q 548 1732 500 1732 q 559 1730 553 1732 m 339 775 l 339 339 q 407 220 339 278 q 475 112 475 163 q 397 0 475 0 q 264 58 326 0 q 203 271 203 115 l 203 1017 l 262 1017 q 460 860 401 860 q 475 863 468 860 q 412 750 461 766 q 399 748 406 748 q 339 775 373 748 z "},"ៃ":{"ha":543,"x_min":0,"x_max":475,"o":"m 16 1730 q 27 1732 22 1732 q 152 1574 75 1732 l 239 1397 l 380 1381 q 439 1314 439 1374 q 439 1299 439 1307 l 425 1151 q 363 1085 418 1085 q 350 1086 357 1085 l 216 1104 q 156 1148 156 1112 q 157 1157 156 1152 q 215 1194 164 1194 q 235 1193 224 1194 l 305 1184 l 311 1248 l 157 1263 l 62 1487 q 0 1693 0 1634 q 16 1730 0 1723 m 339 775 l 339 339 q 407 220 339 278 q 475 112 475 163 q 397 0 475 0 q 264 58 326 0 q 203 271 203 115 l 203 1017 l 262 1017 q 460 860 401 860 q 475 863 468 860 q 412 750 461 766 q 399 748 406 748 q 339 775 373 748 z "},"ោ":{"ha":543,"x_min":-397,"x_max":339,"o":"m 203 700 l -89 866 l -343 645 l -397 789 q -85 1017 -125 1017 q 339 773 -45 1017 l 339 68 q 284 0 339 0 q 165 37 229 0 q 102 131 102 75 q 153 236 102 187 q 203 339 203 285 l 203 700 z "},"ៅ":{"ha":543,"x_min":-291,"x_max":407,"o":"m 339 678 l 339 68 q 284 0 339 0 q 165 37 229 0 q 102 131 102 75 q 153 236 102 187 q 203 339 203 285 l 203 700 l -89 866 l -202 768 l -291 877 q -85 1017 -117 1017 q 271 816 -48 1017 l 271 1133 q 237 1173 271 1160 q 203 1238 203 1187 q 271 1289 203 1289 q 407 1133 407 1289 l 407 814 q 339 678 407 712 z "},"ំ":{"ha":0,"x_min":-797,"x_max":-458,"o":"m -678 1424 q -665 1386 -678 1399 q -627 1373 -652 1373 q -589 1386 -601 1373 q -576 1424 -576 1399 q -589 1462 -576 1450 q -627 1475 -601 1475 q -665 1462 -652 1475 q -678 1424 -678 1450 m -458 1424 q -499 1297 -458 1339 q -627 1255 -541 1255 q -754 1297 -712 1255 q -797 1424 -797 1339 q -754 1552 -797 1509 q -627 1594 -712 1594 q -499 1552 -541 1594 q -458 1424 -458 1509 z "},"ះ":{"ha":746,"x_min":203,"x_max":543,"o":"m 322 203 q 336 165 322 178 q 373 153 349 153 q 412 165 399 153 q 424 203 424 178 q 412 241 424 229 q 373 254 399 254 q 336 241 349 254 q 322 203 322 229 m 543 203 q 501 76 543 119 q 373 34 459 34 q 246 76 288 34 q 203 203 203 119 q 246 331 203 288 q 373 373 288 373 q 501 331 459 373 q 543 203 543 288 m 322 814 q 336 776 322 789 q 373 763 349 763 q 412 776 399 763 q 424 814 424 789 q 412 852 424 840 q 373 865 399 865 q 336 852 349 865 q 322 814 322 840 m 543 814 q 501 686 543 729 q 373 644 459 644 q 246 686 288 644 q 203 814 203 729 q 246 941 203 899 q 373 983 288 983 q 501 941 459 983 q 543 814 543 899 z "},"ៈ":{"ha":610,"x_min":203,"x_max":441,"o":"m 322 949 q 380 934 352 949 q 425 890 409 919 q 441 831 441 862 q 425 771 441 800 q 381 728 410 743 q 322 712 353 712 q 263 728 292 712 q 219 771 235 743 q 203 831 203 800 q 219 890 203 862 q 264 934 235 919 q 322 949 292 949 m 322 305 q 380 290 352 305 q 425 246 409 275 q 441 186 441 218 q 425 127 441 155 q 381 83 410 99 q 322 68 353 68 q 263 83 292 68 q 219 127 235 99 q 203 186 203 155 q 219 246 203 218 q 264 290 235 275 q 322 305 292 305 z "},"៉":{"ha":0,"x_min":-861,"x_max":-407,"o":"m -407 1345 q -475 1255 -407 1273 q -543 1345 -543 1273 l -543 1539 q -566 1580 -543 1567 q -590 1645 -590 1594 q -522 1695 -590 1695 q -407 1539 -407 1695 l -407 1345 m -678 1345 q -746 1255 -678 1273 q -814 1345 -814 1273 l -814 1539 q -838 1580 -814 1567 q -861 1645 -861 1594 q -793 1695 -861 1695 q -678 1539 -678 1695 l -678 1345 z "},"៊":{"ha":0,"x_min":-1085,"x_max":-136,"o":"m -1085 1219 q -1042 1281 -1085 1252 l -916 1367 q -834 1408 -859 1408 q -612 1329 -809 1408 q -425 1408 -451 1408 q -328 1367 -401 1408 q -136 1286 -255 1326 q -251 1187 -198 1187 q -270 1190 -260 1187 q -432 1277 -332 1211 l -612 1187 l -821 1265 l -873 1226 q -1004 1187 -924 1187 q -1085 1219 -1085 1187 z "},"់":{"ha":0,"x_min":-726,"x_max":-543,"o":"m -543 1345 q -610 1255 -543 1273 q -678 1345 -678 1273 l -678 1539 q -702 1580 -678 1567 q -726 1645 -726 1594 q -658 1695 -726 1695 q -543 1539 -543 1695 l -543 1345 z "},"៌":{"ha":0,"x_min":-932,"x_max":-288,"o":"m -779 1302 q -871 1255 -836 1255 q -920 1278 -901 1255 q -932 1312 -932 1295 q -872 1387 -932 1348 l -784 1443 q -598 1651 -651 1528 q -543 1811 -543 1773 q -475 1899 -543 1899 q -407 1811 -407 1899 q -465 1648 -407 1747 q -578 1480 -523 1549 q -445 1461 -527 1477 q -307 1372 -363 1444 q -288 1318 -288 1341 q -323 1266 -288 1284 q -362 1255 -343 1255 q -425 1299 -397 1255 q -530 1373 -467 1364 q -600 1376 -569 1376 q -681 1365 -655 1376 q -779 1302 -722 1348 z "},"៍":{"ha":0,"x_min":-986,"x_max":-235,"o":"m -236 1850 q -235 1832 -235 1841 q -261 1763 -235 1799 q -392 1619 -296 1716 q -549 1494 -488 1522 q -641 1466 -610 1466 q -763 1522 -707 1522 q -827 1494 -803 1522 q -850 1439 -850 1466 q -799 1388 -850 1388 q -754 1406 -754 1388 q -692 1417 -754 1417 q -629 1373 -629 1417 q -669 1284 -629 1314 q -794 1255 -708 1255 q -937 1298 -887 1255 q -986 1438 -986 1342 q -932 1603 -986 1544 q -789 1662 -879 1662 q -633 1612 -677 1662 q -470 1741 -566 1637 q -353 1874 -373 1845 q -304 1898 -337 1898 q -290 1896 -297 1898 q -236 1850 -245 1890 z "},"៎":{"ha":0,"x_min":-814,"x_max":-407,"o":"m -678 1390 l -814 1390 l -814 1526 l -678 1526 l -678 1661 l -543 1661 l -543 1526 l -407 1526 l -407 1390 l -543 1390 l -543 1255 l -678 1255 l -678 1390 z "},"៏":{"ha":0,"x_min":-916,"x_max":-305,"o":"m -407 1797 q -305 1735 -305 1797 q -413 1609 -305 1672 q -610 1547 -521 1547 q -780 1421 -780 1547 q -747 1363 -780 1363 q -621 1476 -713 1363 q -485 1363 -527 1363 q -441 1388 -441 1363 q -502 1421 -441 1421 q -404 1505 -502 1505 q -305 1388 -305 1505 q -480 1255 -305 1255 q -621 1338 -561 1255 q -751 1255 -680 1255 q -916 1421 -916 1255 q -682 1655 -916 1655 q -519 1696 -590 1655 q -407 1797 -449 1737 z "},"័":{"ha":0,"x_min":-810,"x_max":-203,"o":"m -741 1487 q -681 1447 -681 1480 l -681 1444 q -654 1398 -681 1412 q -552 1383 -627 1383 q -400 1460 -458 1383 q -326 1602 -342 1537 q -321 1647 -321 1625 q -338 1716 -321 1684 q -347 1747 -347 1733 q -314 1791 -347 1773 q -292 1797 -303 1797 q -225 1727 -255 1797 q -203 1619 -203 1676 q -216 1529 -203 1575 q -332 1338 -247 1421 q -552 1255 -417 1255 q -728 1299 -647 1255 q -810 1424 -810 1343 q -753 1487 -805 1487 l -741 1487 z "},"៑":{"ha":0,"x_min":-1017,"x_max":-203,"o":"m -203 1390 l -203 1255 l -1017 1255 l -1017 1390 l -203 1390 z "},"្":{"ha":0,"x_min":-610,"x_max":-339,"o":"m -339 -305 l -441 -305 l -441 -407 l -509 -407 l -509 -305 l -610 -305 l -610 -237 l -509 -237 l -509 -136 l -441 -136 l -441 -237 l -339 -237 l -339 -305 z "},"៓":{"ha":0,"x_min":-882,"x_max":-339,"o":"m -773 1390 q -732 1314 -773 1339 q -610 1289 -692 1289 q -488 1314 -529 1289 q -448 1390 -448 1339 q -488 1467 -448 1441 q -610 1492 -529 1492 q -732 1467 -692 1492 q -773 1390 -773 1441 m -339 1390 q -407 1238 -339 1289 q -610 1187 -475 1187 q -813 1238 -746 1187 q -882 1390 -882 1289 q -813 1543 -882 1492 q -610 1594 -746 1594 q -407 1543 -475 1594 q -339 1390 -339 1492 z "},"។":{"ha":1017,"x_min":203,"x_max":814,"o":"m 678 978 q 746 1017 678 1017 q 814 949 814 1017 l 814 139 q 765 30 814 60 q 651 0 715 0 q 595 17 614 0 q 576 68 576 34 q 649 81 619 68 q 678 139 678 94 l 678 794 q 407 678 551 678 q 203 848 203 678 q 373 1017 203 1017 q 441 949 441 1017 q 373 882 441 882 q 339 848 339 882 q 407 814 339 814 q 678 978 555 814 z "},"៕":{"ha":1255,"x_min":203,"x_max":1051,"o":"m 916 949 q 983 1017 916 1017 q 1051 949 1051 1017 l 1051 102 q 992 25 1051 51 q 848 0 932 0 q 899 42 882 17 q 916 102 916 68 l 916 949 m 678 978 q 746 1017 678 1017 q 814 949 814 1017 l 814 139 q 765 30 814 60 q 651 0 715 0 q 595 17 614 0 q 576 68 576 34 q 649 81 619 68 q 678 139 678 94 l 678 794 q 407 678 551 678 q 203 848 203 678 q 373 1017 203 1017 q 441 949 441 1017 q 373 882 441 882 q 339 848 339 882 q 407 814 339 814 q 678 978 555 814 z "},"៖":{"ha":848,"x_min":203,"x_max":644,"o":"m 644 576 l 644 441 l 203 441 l 203 576 l 644 576 m 373 203 q 387 165 373 178 q 424 153 399 153 q 463 165 450 153 q 475 203 475 178 q 463 241 475 229 q 424 254 450 254 q 387 241 399 254 q 373 203 373 229 m 593 203 q 552 76 593 119 q 424 34 510 34 q 297 76 339 34 q 254 203 254 119 q 297 331 254 288 q 424 373 339 373 q 552 331 510 373 q 593 203 593 288 m 373 814 q 387 776 373 789 q 424 763 399 763 q 463 776 450 763 q 475 814 475 789 q 463 852 475 840 q 424 865 450 865 q 387 852 399 865 q 373 814 373 840 m 593 814 q 552 686 593 729 q 424 644 510 644 q 297 686 339 644 q 254 814 254 729 q 297 941 254 899 q 424 983 339 983 q 552 941 510 983 q 593 814 593 899 z "},"ៗ":{"ha":1119,"x_min":203,"x_max":916,"o":"m 399 614 q 257 674 311 614 q 203 806 203 734 q 415 1017 204 862 l 600 875 l 795 1017 q 916 949 916 1017 l 916 271 q 828 59 916 119 q 600 0 741 0 q 372 30 459 0 q 284 153 284 59 q 321 212 284 192 q 399 231 358 231 q 449 151 399 167 q 600 136 499 136 q 731 161 682 136 q 780 271 780 186 l 780 861 l 601 743 l 429 861 l 356 806 q 367 763 356 772 q 399 753 377 753 q 429 762 418 753 q 439 787 439 770 q 469 772 459 787 q 479 728 479 758 q 459 656 479 698 q 399 614 439 614 z "},"៘":{"ha":3866,"x_min":203,"x_max":3662,"o":"m 678 978 q 746 1017 678 1017 q 814 949 814 1017 l 814 139 q 765 30 814 60 q 651 0 715 0 q 595 17 614 0 q 576 68 576 34 q 649 81 619 68 q 678 139 678 94 l 678 794 q 407 678 551 678 q 203 848 203 678 q 373 1017 203 1017 q 441 949 441 1017 q 373 882 441 882 q 339 848 339 882 q 407 814 339 814 q 678 978 555 814 m 1899 643 l 1628 858 l 1356 643 l 1356 326 q 1427 239 1356 298 q 1477 138 1477 197 q 1470 90 1477 115 q 1378 0 1442 0 q 1267 51 1314 0 q 1221 197 1221 102 l 1221 616 q 1272 742 1221 700 l 1628 1017 l 1984 742 q 2066 651 2030 704 q 2102 559 2102 598 q 2053 444 2102 494 l 1942 326 q 2119 136 2002 215 l 2367 136 q 2509 339 2475 190 l 2509 594 q 2333 713 2482 686 l 2554 1017 q 2760 907 2698 907 q 2780 911 2772 907 q 2725 798 2767 814 q 2705 794 2716 794 q 2563 847 2658 794 l 2510 783 q 2645 608 2631 727 l 2645 339 q 2367 0 2618 68 l 2119 0 q 1891 123 1997 0 q 1765 358 1785 245 l 1959 551 l 1959 551 q 1899 643 1959 597 m 3526 978 q 3594 1017 3526 1017 q 3662 949 3662 1017 l 3662 139 q 3613 30 3662 60 q 3499 0 3564 0 q 3444 17 3462 0 q 3425 68 3425 34 q 3497 81 3467 68 q 3526 139 3526 94 l 3526 794 q 3255 678 3399 678 q 3052 848 3052 678 q 3221 1017 3052 1017 q 3289 949 3289 1017 q 3221 882 3289 882 q 3187 848 3187 882 q 3255 814 3187 814 q 3526 978 3403 814 z "},"៙":{"ha":1424,"x_min":170,"x_max":1119,"o":"m 644 0 q 288 119 408 0 q 170 475 170 237 q 288 831 170 712 q 644 949 408 949 q 1000 831 881 949 q 1119 475 1119 712 q 1000 119 1119 237 q 644 0 881 0 m 644 848 q 271 475 271 848 q 644 102 271 102 q 1017 475 1017 102 q 644 848 1017 848 m 644 203 q 441 271 508 203 q 373 475 373 339 q 441 678 373 610 q 644 746 508 746 q 848 678 781 746 q 916 475 916 610 q 848 271 916 339 q 644 203 781 203 m 644 644 q 517 602 560 644 q 475 475 475 559 q 517 348 475 390 q 644 305 560 305 q 771 348 728 305 q 814 475 814 390 q 771 602 814 559 q 644 644 728 644 z "},"៚":{"ha":2611,"x_min":305,"x_max":2441,"o":"m 2117 365 q 2106 347 2106 353 q 2106 344 2106 345 q 2115 338 2110 338 q 2123 342 2119 338 q 2124 345 2124 343 q 2117 365 2124 350 m 1216 664 q 1257 753 1257 728 q 1253 767 1257 762 q 1221 783 1236 783 q 1184 760 1202 783 q 1179 744 1179 753 q 1208 676 1179 720 q 1216 664 1211 670 m 1404 298 q 1375 243 1375 260 q 1377 235 1375 238 q 1405 220 1390 220 q 1430 231 1417 220 q 1434 239 1434 233 q 1404 298 1434 257 m 1635 690 q 1662 737 1662 724 q 1661 742 1662 740 q 1638 755 1651 755 q 1618 747 1629 755 q 1615 739 1615 745 q 1635 690 1615 724 m 1789 317 q 1775 298 1775 302 q 1775 296 1775 297 q 1786 291 1780 291 q 1797 294 1792 291 q 1799 297 1799 295 q 1789 317 1799 302 m 2022 664 q 2039 685 2039 681 q 2039 686 2039 686 q 2031 689 2035 689 q 2018 683 2025 689 q 2017 680 2017 682 q 2022 664 2017 674 m 2140 500 q 2199 521 2168 513 q 2377 543 2277 543 q 2441 492 2441 543 q 2374 441 2441 441 l 2293 441 q 2190 418 2235 441 q 2209 367 2203 391 q 2214 331 2214 347 q 2182 264 2214 289 q 2109 235 2144 235 q 2098 236 2104 235 q 2024 284 2058 241 q 1997 351 1997 317 q 1999 371 1997 361 q 2060 452 2009 412 q 2038 484 2049 467 q 2016 513 2026 498 q 1946 454 1984 484 q 1856 379 1893 410 q 1878 331 1870 353 q 1889 275 1889 300 q 1860 215 1889 237 q 1786 186 1821 186 q 1773 186 1780 186 q 1697 238 1732 193 q 1681 285 1681 258 q 1705 358 1681 317 q 1733 398 1716 377 q 1674 475 1708 431 l 1628 533 q 1552 452 1594 495 q 1464 366 1501 404 q 1510 285 1494 321 q 1525 219 1525 248 q 1494 155 1525 178 q 1401 117 1445 117 q 1392 118 1396 117 q 1301 172 1344 122 q 1280 231 1280 197 q 1302 311 1280 266 q 1341 376 1317 341 q 1274 449 1312 408 q 1225 503 1248 477 q 1116 362 1179 438 q 833 91 965 181 q 587 0 700 0 q 376 127 446 0 q 305 509 305 254 q 386 890 305 763 q 627 1017 467 1017 q 869 950 789 1017 q 949 749 949 883 q 891 528 949 611 q 715 414 832 444 q 689 410 701 410 q 644 446 654 410 q 642 464 642 456 q 688 511 642 498 q 808 590 768 532 q 848 744 848 648 q 793 872 848 829 q 627 916 737 916 q 463 814 517 916 q 408 513 408 713 l 408 509 q 452 203 408 305 q 587 102 497 102 q 787 180 677 102 q 1027 416 897 259 q 1161 585 1109 514 q 1107 682 1124 637 q 1090 759 1090 724 q 1118 836 1090 804 q 1219 895 1168 894 l 1220 895 q 1318 838 1269 895 q 1343 766 1343 810 q 1318 663 1343 722 q 1278 585 1302 627 q 1342 514 1306 552 q 1400 449 1374 480 q 1476 528 1434 486 q 1569 619 1531 579 q 1533 704 1548 659 q 1522 762 1522 736 q 1555 833 1522 808 q 1641 867 1601 867 q 1652 867 1647 867 q 1736 812 1697 861 q 1754 758 1754 789 q 1729 673 1754 722 q 1691 611 1714 644 q 1746 541 1714 580 q 1799 470 1775 504 q 1870 534 1830 500 q 1955 604 1921 574 q 1932 661 1940 635 q 1926 701 1926 682 q 1957 764 1926 741 q 2030 793 1995 793 q 2043 792 2037 793 q 2120 741 2083 787 q 2136 694 2136 721 q 2112 624 2136 663 q 2080 579 2100 603 q 2112 538 2094 561 q 2140 500 2127 519 z "},"៛":{"ha":576,"x_min":102,"x_max":543,"o":"m 373 576 l 477 576 l 477 441 l 373 441 l 373 332 q 312 75 373 149 q 180 0 251 0 q 102 112 102 0 q 170 220 102 163 q 237 339 237 278 l 237 441 l 102 441 l 102 576 l 237 576 l 237 594 q 102 713 237 686 l 296 1017 q 451 920 376 920 q 543 958 498 920 q 487 814 543 875 q 423 787 461 787 q 311 827 376 787 l 272 769 q 373 642 373 720 l 373 576 z "},"០":{"ha":1153,"x_min":203,"x_max":949,"o":"m 814 441 q 576 746 814 746 q 339 441 339 746 q 576 136 339 136 q 814 441 814 136 m 949 441 q 576 0 949 0 q 203 441 203 0 q 576 882 203 882 q 949 441 949 882 z "},"១":{"ha":1153,"x_min":203,"x_max":949,"o":"m 949 271 q 919 140 949 203 l 870 41 q 804 0 836 0 q 770 9 787 0 q 743 60 743 31 q 758 106 743 81 l 794 163 q 814 271 814 205 l 814 529 q 774 590 814 559 l 581 720 l 388 591 q 339 532 339 567 l 339 292 l 367 259 q 394 263 381 263 q 450 227 430 263 q 460 192 460 210 q 431 132 460 161 q 374 104 403 104 q 336 118 355 104 l 288 151 q 203 292 203 205 l 203 559 q 312 701 203 633 l 581 882 l 851 701 q 949 552 949 633 l 949 271 z "},"២":{"ha":1153,"x_min":145,"x_max":949,"o":"m 262 1126 q 359 621 359 956 q 339 305 339 463 q 576 136 339 136 q 814 305 814 136 l 814 407 l 703 338 l 581 424 l 536 366 q 474 332 506 332 q 435 345 455 332 q 404 392 404 365 q 424 439 404 413 l 469 496 l 557 610 l 689 484 l 873 610 q 949 541 949 610 l 949 305 q 576 0 949 0 q 203 305 203 0 q 224 642 203 473 q 162 1044 224 937 q 145 1105 145 1080 q 178 1154 145 1141 q 211 1161 196 1161 q 262 1126 244 1161 z "},"៣":{"ha":1492,"x_min":203,"x_max":1289,"o":"m 339 278 q 390 192 339 251 q 428 99 428 148 q 424 66 428 83 q 361 0 407 0 q 250 51 296 0 q 203 197 203 102 l 203 563 q 258 730 203 678 l 486 882 l 749 717 l 958 882 l 1187 730 q 1289 563 1289 671 l 1289 47 q 1145 -78 1203 -78 q 1115 -68 1129 -78 q 1051 92 1051 -20 q 1153 183 1153 129 l 1153 563 q 1060 652 1153 597 l 958 722 l 814 597 l 814 68 q 759 0 814 0 q 657 27 703 0 q 610 87 610 54 q 644 178 610 119 q 678 292 678 237 l 678 597 l 486 728 l 376 648 q 339 563 339 617 l 339 278 z "},"៤":{"ha":1153,"x_min":193,"x_max":949,"o":"m 203 278 q 261 536 203 374 q 279 665 279 589 q 200 1071 279 820 q 193 1103 193 1088 q 234 1155 193 1138 q 265 1162 251 1162 q 317 1122 299 1162 q 395 644 395 820 q 383 523 395 573 q 339 278 339 347 q 483 136 382 168 l 773 136 q 798 151 798 136 q 773 195 798 165 q 691 345 691 262 q 749 495 691 414 q 886 563 795 563 q 949 495 949 563 q 886 427 949 427 q 842 343 842 384 q 877 271 842 307 q 949 134 949 201 q 773 0 949 0 l 476 0 q 203 278 247 32 z "},"៥":{"ha":1153,"x_min":203,"x_max":949,"o":"m 382 637 q 366 523 380 577 q 339 278 339 347 q 483 136 382 168 l 773 136 q 798 151 798 136 q 773 195 798 165 q 691 345 691 262 q 749 495 691 414 q 886 563 795 563 q 949 495 949 563 q 886 427 949 427 q 842 343 842 384 q 877 271 842 307 q 949 134 949 201 q 773 0 949 0 l 476 0 q 203 278 247 32 q 231 536 203 374 q 263 684 258 614 q 203 776 203 718 q 207 804 203 789 q 300 882 224 882 q 408 850 375 882 q 427 800 427 829 q 420 762 427 783 q 509 755 435 755 q 742 832 684 755 q 824 971 800 909 q 861 1093 847 1034 q 911 1153 874 1153 q 949 1080 949 1153 q 922 900 949 1008 q 810 710 895 793 q 509 627 725 627 q 382 637 438 627 z "},"៦":{"ha":1153,"x_min":117,"x_max":949,"o":"m 209 646 q 122 1059 169 898 q 117 1093 117 1078 q 168 1154 117 1143 q 185 1156 177 1156 q 255 1085 236 1156 q 334 716 300 922 l 581 882 l 851 701 q 949 552 949 633 l 949 237 q 729 0 902 75 l 424 0 q 203 203 260 61 l 203 281 q 288 422 203 368 l 336 454 q 375 468 355 468 q 430 441 403 468 q 460 381 460 411 q 450 345 460 363 q 393 309 429 309 q 367 313 381 309 l 339 281 q 458 136 370 168 l 695 136 q 814 271 770 187 l 814 529 q 774 590 814 559 l 581 720 l 388 591 q 260 535 310 535 l 254 535 q 208 626 208 538 q 209 646 208 635 z "},"៧":{"ha":1356,"x_min":203,"x_max":1153,"o":"m 412 326 q 339 251 339 326 q 398 136 353 156 q 438 184 422 136 q 454 271 454 233 q 412 326 454 326 m 814 203 l 814 612 l 705 702 l 576 613 l 447 702 l 339 612 l 339 425 q 412 454 360 454 q 590 271 590 454 q 530 83 590 166 q 398 0 470 0 q 268 83 332 0 q 203 251 203 166 l 203 634 q 262 736 203 686 l 437 882 l 576 785 l 713 882 l 889 736 q 949 634 949 686 l 949 203 q 983 136 949 136 q 1017 203 1017 136 l 1017 739 q 888 1017 1017 1017 q 821 1086 821 1017 q 888 1156 821 1156 q 1153 739 1153 1156 l 1153 203 q 983 0 1153 0 q 814 203 814 0 z "},"៨":{"ha":1153,"x_min":203,"x_max":949,"o":"m 877 81 q 841 40 877 81 q 722 0 805 0 q 583 106 677 0 l 450 0 q 286 122 369 0 q 203 323 203 243 l 203 635 q 226 718 203 694 l 367 846 q 435 882 414 882 q 685 773 457 882 l 814 814 l 814 1085 q 882 1153 814 1153 q 949 1085 949 1153 l 949 807 q 884 704 949 726 l 718 648 q 695 645 708 645 q 629 661 667 645 l 461 732 l 339 620 l 339 294 q 434 159 366 222 l 599 298 l 721 163 q 784 198 749 163 q 814 288 814 229 q 814 305 814 296 q 780 387 814 387 q 746 454 746 387 q 848 522 746 522 q 949 305 949 522 q 877 81 949 161 z "},"៩":{"ha":1153,"x_min":203,"x_max":1207,"o":"m 599 296 q 727 164 727 296 q 461 0 710 0 q 203 281 205 0 q 547 591 203 575 q 531 688 531 643 q 608 846 531 784 q 697 877 646 877 q 949 762 798 877 q 987 1047 949 941 q 1137 1153 1024 1153 q 1207 1085 1207 1153 q 1137 1017 1207 1017 q 1095 952 1105 1017 q 1085 762 1085 887 q 1042 625 1085 656 q 993 608 1020 608 q 932 625 966 608 q 716 722 781 722 q 699 720 706 722 q 671 682 671 712 q 710 576 671 645 l 905 433 q 927 394 927 416 q 907 348 927 373 q 856 315 880 315 q 831 323 843 315 q 525 446 710 444 l 521 446 q 339 281 339 446 q 461 136 339 136 q 599 164 581 136 q 513 230 513 164 q 599 296 513 296 z "},"​":{"ha":0,"x_min":0,"x_max":0,"o":""},"◌":{"ha":882,"x_min":203,"x_max":746,"o":"m 647 170 q 680 141 680 170 q 649 114 680 114 l 647 114 q 614 142 614 115 q 647 170 614 170 m 693 275 q 727 247 727 275 q 693 219 727 219 q 660 247 660 220 q 693 275 660 275 m 566 77 q 600 49 600 77 q 566 21 600 21 q 533 50 533 22 q 566 77 533 77 m 418 56 q 452 28 452 56 q 420 1 452 1 l 418 1 q 385 28 385 1 q 418 56 385 56 m 320 140 q 354 111 354 140 q 322 84 354 84 l 320 84 q 287 112 287 85 q 320 140 287 140 m 265 244 q 299 216 299 244 q 267 189 299 189 l 265 189 q 232 216 232 189 q 265 244 232 244 m 239 353 q 273 325 273 353 q 241 298 273 298 l 239 298 q 206 326 206 298 q 239 353 206 353 m 237 463 q 271 435 271 463 q 239 408 271 408 l 237 408 q 203 435 203 408 q 237 463 203 463 m 253 573 q 287 545 287 573 q 255 517 287 517 l 253 517 q 220 545 220 518 q 253 573 220 573 m 296 680 q 329 652 329 680 q 296 624 329 624 q 262 652 262 625 q 296 680 262 680 m 374 777 q 407 748 407 777 q 376 721 407 721 l 374 721 q 340 749 340 722 q 374 777 340 777 m 500 812 q 534 783 534 812 q 503 756 534 756 l 500 756 q 467 784 467 757 q 500 812 467 812 m 611 741 q 645 713 645 741 q 613 686 645 686 l 611 686 q 578 713 578 686 q 611 741 578 741 m 678 628 q 712 600 712 628 q 680 572 712 572 l 678 572 q 645 600 645 573 q 678 628 645 628 m 707 519 q 741 491 741 519 q 707 463 741 463 q 673 492 673 464 q 707 519 673 519 m 712 393 q 746 364 746 393 q 714 337 746 337 l 712 337 q 679 365 679 338 q 712 393 679 393 z "}}}
